<svg width="80" height="90" viewBox="0 0 80 90" fill="none" xmlns="http://www.w3.org/2000/svg">
<g id="afrique" filter="url(#filter0_d_68_45)">
<path d="M47.7846 81H41.0422C41.0422 77.5731 38.7691 75.2121 37.6326 74.4599C37.51 72.0733 36.943 69.8193 36.6749 68.9907C36.4297 66.8489 35.1425 65.625 34.5296 65.2808V61.2649C35.2447 61.0864 36.6749 60.0257 36.6749 57.2108C36.6749 54.3959 34.0954 50.5049 32.8057 48.9113V41.6063C32.254 42.004 30.0474 41.4405 29.013 41.1091C28.5278 40.6119 27.2202 39.5945 25.8717 39.5027C24.1861 39.388 25.3737 39.8852 18.0566 41.1091C12.203 42.0882 9.5903 37.3864 9.01567 34.9132V23.5158C8.7092 21.7717 12.9743 17.7661 15.1452 15.9812C15.1145 13.9924 17.3543 11.8124 18.4781 10.971C19.9338 10.9072 22.9909 10.818 23.5732 10.971C24.1555 11.124 24.8629 9.81084 25.1439 9.13515C27.851 9.03316 33.2424 8.89038 33.1505 9.13515C33.0586 9.37993 33.4697 10.8435 33.6868 11.5447C34.3917 13.0745 36.228 13.304 37.058 13.2275C38.6287 13.6482 39.778 14.9486 41.5019 15.5223C42.881 15.9812 42.4596 14.8466 42.0765 14.2219H44.49C46.3289 15.79 47.7846 14.6426 50.811 14.9486C53.8375 15.2546 60.3884 32.9626 64.1043 35.2574C67.0771 37.0932 69.9401 36.0223 71 35.2574C70.7318 41.2621 61.6909 48.6819 60.3884 50.25C59.0858 51.8181 60.3884 55.1455 60.3884 56.5606C60.3884 57.6927 61.2567 59.99 61.6909 60.9972L60.3884 63.292C58.6772 64.2354 55.3392 66.4664 55.6763 67.8433C56.0134 69.2201 56.583 70.2273 56.8256 70.5588C55.9189 71.0432 53.9907 72.5552 53.531 74.7276C53.0713 76.9 49.5085 79.8144 47.7846 81Z" stroke="#CEB9FF" shape-rendering="crispEdges"/>
<path d="M63.2615 71.2089V68.8377L64.4874 64.3246L69.3526 60.1175C69.6846 60.3087 70.3487 60.8136 70.3487 61.3031C70.3487 61.7927 68.2544 65.5612 67.2073 67.3843V70.903L66.2113 72.3946H64.1426L63.2615 71.2089Z" stroke="#CEB9FF" shape-rendering="crispEdges"/>
</g>
<defs>
<filter id="filter0_d_68_45" x="0.4" y="0.4" width="79.2454" height="89.2" filterUnits="userSpaceOnUse" color-interpolation-filters="sRGB">
<feFlood flood-opacity="0" result="BackgroundImageFix"/>
<feColorMatrix in="SourceAlpha" type="matrix" values="0 0 0 0 0 0 0 0 0 0 0 0 0 0 0 0 0 0 127 0" result="hardAlpha"/>
<feOffset/>
<feGaussianBlur stdDeviation="4.05"/>
<feComposite in2="hardAlpha" operator="out"/>
<feColorMatrix type="matrix" values="0 0 0 0 0.725 0 0 0 0 0.949583 0 0 0 0 1 0 0 0 1 0"/>
<feBlend mode="normal" in2="BackgroundImageFix" result="effect1_dropShadow_68_45"/>
<feBlend mode="normal" in="SourceGraphic" in2="effect1_dropShadow_68_45" result="shape"/>
</filter>
</defs>
</svg>
