<svg width="68" height="98" viewBox="0 0 68 98" fill="none" xmlns="http://www.w3.org/2000/svg">
<g id="ameriquesud" filter="url(#filter0_d_68_55)">
<path d="M34.7809 84.3861C34.7809 85.7837 36.4394 87.7458 37.2686 88.552V89H35.3585L32.7818 87.8353L32.0711 86.4019L30.072 85.8196C29.2871 84.8341 27.6464 82.7198 27.3621 82.1464C27.0778 81.573 26.0886 78.3538 25.6295 76.8158L24.7855 74.6657L24.0747 72.7843L22.9196 71.6197C22.9196 71.1419 22.6886 70.0877 21.7646 69.6935C20.8406 69.2993 21.3796 67.6479 21.7646 66.8714L22.9196 63.915V60.0178L21.7646 58.8084V56.703V54.7769V51.4621V48.2816C21.7646 47.4216 21.2908 46.4301 21.0538 46.0419L17.7664 44.1157L15.2787 42.7271C14.9233 42.0104 14.2125 40.344 14.2125 39.4123C14.2125 38.4806 12.4059 35.1419 11.5026 33.589C10.6881 32.8424 9.05923 31.1342 9.05923 30.2742C9.05923 29.1991 8.92596 26.4666 9.05923 24.5853C9.19251 22.7039 10.9251 23.7342 11.5026 21.7632C12.0801 19.7922 12.2134 20.7777 12.1245 19.613C12.0357 18.4484 12.702 17.2389 13.0574 15.9399C13.4128 14.6408 13.6349 13.2074 14.2125 12.2667C14.79 11.326 17.0556 10.7437 17.7664 9.53424C18.335 8.56668 19.2472 9.13109 19.6322 9.53424H24.0747H26.6957C27.4657 9.81794 29.1035 10.457 29.4944 10.7437C29.9831 11.1021 30.4273 12.2667 30.7827 13.2074C31.067 13.96 31.7601 14.6259 32.071 14.8648H34.9142C35.4621 15.1037 36.7 15.6532 37.2687 15.9399C37.9795 16.2982 39.712 17.8213 40.5561 18.314C41.2313 18.7082 41.9332 19.3443 42.1998 19.613L40.5561 21.7632L39.0012 23.7342L41.5778 24.5853V23.7342H44.421L46.5089 25.302H48.8634L55.7048 27.4073C56.3711 27.9299 57.8904 29.45 58.6368 31.3492C59.5697 33.7234 58.5035 34.1713 57.7039 34.888C56.9042 35.6047 56.149 36.1871 54.2832 37.3965C52.4174 38.606 54.2832 39.8602 54.2832 42.7271V48.2816C54.2832 51.0141 52.9949 50.163 52.1508 50.163C51.3068 50.163 47.8417 50.6558 46.5089 51.4621C45.1762 52.2684 46.8643 54.3289 46.5089 55.628C46.1535 56.927 44.8652 58.7188 44.421 60.0178C43.9767 61.3169 42.1998 62.9743 41.5778 63.915C40.9559 64.8557 40.2895 63.915 39.712 63.915H37.2686L39.0012 66.8714C38.4237 67.3791 37.2686 68.4661 37.2686 68.7528C37.2686 69.1112 34.7809 71.6197 33.848 72.7843C32.9151 73.949 33.848 76.6815 33.848 77.7565C33.848 78.8316 34.7809 82.6392 34.7809 84.3861Z" stroke="#CEB9FF" shape-rendering="crispEdges"/>
<path d="M40.2007 84.0726C40.0674 83.8486 40.1119 83.3559 40.334 83.1767H40.9559H41.6667C41.8 83.1767 42.2886 83.0423 42.5108 82.9527C42.7329 82.8631 43.0439 82.9079 43.3548 83.1767C43.6658 83.4455 43.3548 83.3559 43.3548 83.6246C43.3548 83.8934 43.3104 83.983 43.1771 84.0726C43.0439 84.1622 42.955 84.3861 42.7329 84.3861C42.5108 84.3861 42.5108 84.6997 42.3775 85.0581C42.2442 85.4164 41.8444 85.4164 41.6667 85.4612C41.489 85.506 41.0448 85.3716 40.8671 85.0581C40.6894 84.7445 40.6005 84.8341 40.5561 84.6997C40.5117 84.5653 40.334 84.2966 40.2007 84.0726Z" stroke="#CEB9FF" shape-rendering="crispEdges"/>
</g>
<defs>
<filter id="filter0_d_68_55" x="0.400488" y="0.4" width="67.1995" height="97.2" filterUnits="userSpaceOnUse" color-interpolation-filters="sRGB">
<feFlood flood-opacity="0" result="BackgroundImageFix"/>
<feColorMatrix in="SourceAlpha" type="matrix" values="0 0 0 0 0 0 0 0 0 0 0 0 0 0 0 0 0 0 127 0" result="hardAlpha"/>
<feOffset/>
<feGaussianBlur stdDeviation="4.05"/>
<feComposite in2="hardAlpha" operator="out"/>
<feColorMatrix type="matrix" values="0 0 0 0 0.725 0 0 0 0 0.949583 0 0 0 0 1 0 0 0 1 0"/>
<feBlend mode="normal" in2="BackgroundImageFix" result="effect1_dropShadow_68_55"/>
<feBlend mode="normal" in="SourceGraphic" in2="effect1_dropShadow_68_55" result="shape"/>
</filter>
</defs>
</svg>
