<svg width="121" height="82" viewBox="0 0 121 82" fill="none" xmlns="http://www.w3.org/2000/svg">
<g id="am&#195;&#169;riquenord" filter="url(#filter0_d_68_56)">
<path d="M47.707 16.377H48.3631M48.3631 16.377H50.9528V17.371C51.4308 17.7595 52.5129 18.5364 53.0165 18.5364C53.5201 18.5364 55.0272 18.5364 55.7177 18.5364L57.5478 17.371C57.9391 17.0397 58.487 16.377 57.5478 16.377C56.6086 16.377 54.5553 15.6001 53.646 15.2117L50.9528 14.4233H49.3989L48.3631 16.377ZM47.9833 65.9393V69.4011L49.5371 71.4576H51.8505L50.9528 73H50.2967H47.9833C47.684 71.8004 46.9819 69.4011 46.5676 69.4011C46.1532 69.4011 45.0138 68.3957 44.4958 67.893H42.7003L41.1465 65.9393C41.0199 65.9393 40.6355 65.9393 40.1107 65.9393C39.5858 65.9393 37.567 65.9393 36.6232 65.9393L34.9313 64.8082L33.3775 63.917L31.2022 61.8605L30.408 60.6951C30.1203 60.0553 29.4895 58.5701 29.2686 57.7474C29.0476 56.9248 28.578 55.4396 28.3708 54.7998L26.817 51.8521C26.3911 51.635 25.5118 51.3311 25.4013 51.8521C25.2632 52.5033 25.4013 53.7715 25.4013 54.7998C25.4013 55.6224 26.3451 57.7017 26.817 58.6386C26.184 57.736 24.835 55.7046 24.5035 54.7998C24.0892 53.6687 23.8475 53.1545 23.8475 52.5033C23.8475 51.8521 23.8475 51.098 23.8475 50.4468C23.8475 49.9258 23.318 49.2928 23.0533 49.0415C22.8001 48.8815 22.2661 48.404 22.1556 47.7733C22.0174 46.985 22.1556 47.2592 22.1556 45.7168C23.0533 42.7691 22.2591 42.2207 23.0533 41.4666C23.8475 40.7126 23.6058 39.7871 24.5035 39.0331C25.4013 38.279 26.817 38.1419 26.817 37.7649C26.817 37.3879 27.473 38.4161 28.3708 36.8737C29.2686 35.3313 29.2686 35.4342 29.2686 34.0289C29.2686 32.9046 28.67 31.8695 28.3708 31.4925C28.3708 31.3097 28.3708 30.6904 28.3708 29.6759C28.3708 28.6613 27.3349 27.1281 26.817 26.4883H25.4013L23.0533 24.9459H19.9802H16.4928H14.4211C14.0412 25.46 13.1228 26.4883 12.4874 26.4883C11.8521 26.4883 9.89775 27.4251 9 27.8936C9.03453 27.3794 9.2348 26.0701 9.75964 24.9459C10.4157 23.5406 11.348 22.0325 12.4874 21.7583C13.6269 21.4841 13.2471 21.2441 14.4211 21.107C15.595 20.9699 16.0094 21.107 17.5287 20.2159C19.0479 19.3247 17.8049 19.0505 19.9802 18.5364C22.1556 18.0222 21.4305 17.371 24.5035 17.371C26.962 17.371 28.7046 17.371 29.2686 17.371C29.904 16.9826 31.3323 16.4387 31.9618 17.371C32.7486 18.5364 32.2035 18.5364 34.9313 18.5364C37.6591 18.5364 37.7626 18.5364 38.9366 18.5364C40.1107 18.5364 40.9048 18.5364 42.7003 18.5364C44.4958 18.5364 45.1519 18.5364 46.5676 18.5364C49.5371 18.5364 49.2609 18.4336 50.9528 19.3247C54.82 20.2159 55.7523 20.2159 57.5478 20.2159C59.3433 20.2159 61.1733 20.2159 61.933 20.2159C62.5407 20.2159 64.327 19.0962 65.1441 18.5364H66.3181C66.8246 18.7992 67.6855 19.5029 67.0778 20.2159C66.3181 21.107 64.5226 21.7583 63.8666 21.7583C63.2105 21.7583 60.8971 23.0265 60.3791 23.4035C59.9648 23.7051 58.3189 24.1233 57.5478 24.2946L56.3738 26.4883L58.3074 28.9218L60.3791 29.6759V32.5207C61.933 32.5207 62.589 33.3091 63.8666 31.4925C65.1441 29.6759 63.9702 29.2989 65.1441 27.8936C66.3181 26.4883 67.6302 25.1858 68.3899 24.2946C69.1495 23.4035 69.1495 22.5123 70.1854 23.4035C71.2213 24.2946 71.4975 24.706 72.2571 25.5971C73.0168 26.4883 73.1549 26.4883 74.0526 26.4883C74.9504 26.4883 75.3993 25.083 75.8827 26.4883C76.3661 27.8936 76.6078 28.1678 76.884 28.9218C77.1602 29.6759 77.2638 31.4925 77.9199 31.4925C78.4447 31.4925 79.3586 32.178 79.7499 32.5207L77.9199 34.0289C77.2408 34.2459 75.8827 34.6801 75.8827 34.6801H71.3594L70.1854 35.7084L72.2571 36.8737L71.3594 39.0331H68.3899L67.0778 40.1984H65.0223L61.933 42.255L60.3791 43.9002L58.5836 46.3337L57.5478 47.7733L53.646 49.0415L51.8505 52.5033V54.7998C49.5371 52.5033 46.8438 51.8521 45.6698 51.8521C44.7306 51.8521 42.8614 52.2862 42.0442 52.5033C41.7911 52.7661 41.0499 53.4425 40.1107 54.0457C39.1714 54.6489 37.3944 55.988 36.6232 56.5821L35.9671 57.7474V59.2898L36.6232 60.6951L38.9366 62.7517C39.374 62.7517 40.4283 62.7517 41.1465 62.7517C41.8647 62.7517 44.4613 60.4438 45.6698 59.2898V60.6951L44.4958 62.7517V63.917L45.6698 64.8082L47.9833 65.9393ZM68.3899 17.371C67.7914 18.0222 66.9535 19.3247 68.3899 19.3247C69.8263 19.3247 72.4235 18.7992 73.5425 18.5364C73.7125 18.2736 74.0526 17.9057 74.0526 18.5364C74.0526 19.167 74.0526 20.5129 74.0526 21.107V23.4035C74.3289 23.4035 75.0816 23.4035 75.8827 23.4035C76.6837 23.4035 78.3572 23.4035 79.0939 23.4035C79.3125 22.638 79.7499 20.9288 79.7499 20.2159C79.7499 19.5029 78.5299 18.7992 77.9199 18.5364L75.8827 17.371L74.0526 16.377H71.3594H67.0778L68.3899 17.371ZM75.8827 11.3728L74.0526 13.6693C74.3289 13.8863 75.0816 14.1903 75.8827 13.6693C76.884 13.018 78.4378 13.635 79.0939 12.5039C79.7499 11.3728 80.3024 12.024 81.3037 11.3728C82.1048 10.8518 84.3768 10.1275 85.4127 9.83042C85.0674 9.39627 84.1696 8.6582 83.3409 9.17919C82.5122 9.70018 78.0235 10.8587 75.8827 11.3728ZM89.1763 9.83042C88.5203 10.3446 87.0286 11.3728 86.3104 11.3728C85.5922 11.3728 83.433 12.9038 82.4432 13.6693L86.9665 14.4233C87.3578 14.6404 88.244 15.2048 88.6584 15.7258C89.0727 16.2468 88.831 17.8166 88.6584 18.5364L86.9665 21.107V23.4035C87.3578 23.9176 88.244 24.9459 88.6584 24.9459C89.1763 24.9459 91.2135 23.4035 92.2494 23.4035C93.2853 23.4035 94.183 22.4095 94.8391 21.7583C95.4951 21.107 97.8086 21.107 98.8444 20.2159C99.8803 19.3247 102.194 20.113 103.609 19.3247C105.025 18.5364 106.855 19.7017 106.855 18.5364C108.133 15.7258 109.169 15.1774 109.687 14.4233C110.204 13.6693 111.24 13.635 111.24 12.5039C111.24 11.599 111.747 10.3446 112 9.83042H89.1763ZM77.9199 36.8737L79.0939 35.7084H75.8827L77.9199 36.8737ZM49.5371 58.6386L55.0962 60.3181L53.646 59.2898L49.5371 58.6386ZM55.7177 62.7517L58.3074 63.917L62.5545 62.6146L55.7177 62.7517Z" stroke="#CEB9FF" shape-rendering="crispEdges"/>
</g>
<defs>
<filter id="filter0_d_68_56" x="0.341406" y="0.4" width="120.562" height="81.2" filterUnits="userSpaceOnUse" color-interpolation-filters="sRGB">
<feFlood flood-opacity="0" result="BackgroundImageFix"/>
<feColorMatrix in="SourceAlpha" type="matrix" values="0 0 0 0 0 0 0 0 0 0 0 0 0 0 0 0 0 0 127 0" result="hardAlpha"/>
<feOffset/>
<feGaussianBlur stdDeviation="4.05"/>
<feComposite in2="hardAlpha" operator="out"/>
<feColorMatrix type="matrix" values="0 0 0 0 0.725 0 0 0 0 0.949583 0 0 0 0 1 0 0 0 1 0"/>
<feBlend mode="normal" in2="BackgroundImageFix" result="effect1_dropShadow_68_56"/>
<feBlend mode="normal" in="SourceGraphic" in2="effect1_dropShadow_68_56" result="shape"/>
</filter>
</defs>
</svg>
