<svg width="123" height="98" viewBox="0 0 123 98" fill="none" xmlns="http://www.w3.org/2000/svg">
<g id="asie" filter="url(#filter0_d_68_54)">
<path d="M12.0614 45.3155C13.3492 45.3886 16.1944 45.4909 17.2732 45.3155L17.6376 47.1788L17.2732 47.9826L16.1434 48.7498L15.7425 49.2613L15.2322 50.0285L14.6855 50.6861V51.8187L16.1434 52.659L16.9452 53.3897L18.2572 54.4857C18.5366 54.985 19.1246 55.9837 19.2412 55.9837C19.387 55.9837 20.043 57.5181 20.2253 57.9565C20.3711 58.3073 20.8448 59.0526 21.0635 59.3814L22.5578 61.5004C22.7643 61.8657 23.2065 62.6403 23.3232 62.8157C23.4689 63.0349 23.8698 63.8021 23.9427 64.3501C24.001 64.7885 24.4044 65.4096 24.5988 65.6654C24.8053 66.0307 25.3058 66.8564 25.6557 67.2364C26.0056 67.6163 26.8219 67.3947 27.1864 67.2364L28.6807 66.323C29.2516 66.0064 30.4811 65.3439 30.831 65.2269C31.1808 65.11 32.2159 64.5937 32.6897 64.3501L35.9698 62.1215L37.3547 59.8198L38.3023 58.8334C38.0837 58.5289 37.588 57.8396 37.3547 57.5181C37.0632 57.1162 36.2978 56.824 36.2978 56.4221C36.2978 56.1006 36.0791 55.9958 35.9698 55.9837L36.2978 55.3991H39.1041H41.5824C41.874 55.3991 43.4776 55.7888 44.243 55.9837L44.8261 56.4221L45.9924 57.5181L46.3568 58.8334C46.8549 59.1622 47.9094 59.7321 48.1427 59.3814C48.3759 59.0307 48.9445 58.675 49.1996 58.5411C49.4061 59.2231 49.8337 60.6309 49.8921 60.8062C49.9649 61.0255 50.9854 63.3271 51.1676 63.3271C51.3134 63.3271 51.6171 64.886 51.7508 65.6654L52.7348 68.1132L53.6824 70.7072L55.1038 71.8032L56.8167 69.7573V68.1132C56.8167 67.6748 56.7438 66.0307 56.8167 65.6654C56.8896 65.3 57.2541 64.6424 57.655 64.2405C58.0559 63.8386 58.5661 63.3271 59.1857 62.7426C59.8053 62.158 59.9146 62.1215 60.2791 61.4639C60.6435 60.8062 60.9351 60.0025 61.7005 59.3814C62.3127 58.8845 62.7574 58.395 62.9032 58.2123H64.5432L66.001 58.8334L66.8028 59.3814L68.3336 61.062C68.4793 61.3055 68.7709 61.8584 68.7709 62.1215C68.7709 62.4503 68.7345 62.7426 68.7709 63.3271C68.8001 63.7948 69.5606 64.1309 69.9372 64.2405L70.6661 64.6424L71.6866 64.2405C72.0632 64.7155 72.8164 65.7384 72.8164 66.0307C72.8164 66.3961 72.8893 66.871 72.8164 67.1998C72.7581 67.4629 73.278 68.2106 73.5453 68.5516L74.3835 67.1998H74.8938L76.3152 67.7113L77.6637 69.1362C77.9188 69.3432 78.5748 69.9472 79.1579 70.7072C79.7411 71.4671 80.0569 71.0238 80.142 70.7072C80.7737 70.4271 82.0371 69.8449 82.0371 69.7573C82.0371 69.6696 82.4745 68.917 82.6932 68.5516V66.871C82.6932 66.3741 82.2558 65.8602 82.0371 65.6654L81.7091 64.6424L80.3971 64.2405C79.984 63.9361 79.1579 63.2102 79.1579 62.7426C79.1579 62.2749 78.9636 61.4273 78.8664 61.062L79.1579 59.3814C79.6803 59.1987 80.8053 58.8334 81.126 58.8334H82.6932L85.135 58.2123L86.848 57.5181C87.3218 57.2502 88.2693 56.6778 88.2693 56.5317C88.2693 56.3855 88.974 55.1799 89.3263 54.5953C89.5449 54.0108 89.9823 52.7978 89.9823 52.6225V51.7456L89.3263 50.1746L88.7431 48.969L87.8684 47.6172L87.3218 46.7404L87.1031 45.7905L86.4835 44.8771L85.6088 44.1829L84.4061 42.9773V42.0639L85.6088 40.8948H86.2648L87.1031 42.0639H88.2693L89.6178 41.5524L90.2374 42.0639L91.1486 43.233L91.7317 44.1829L92.3148 44.731L93.0802 45.7905L93.8091 46.5577H94.7931C94.8296 46.2411 94.8806 45.5566 94.7931 45.3521C94.6838 45.0963 93.7362 44.3291 93.554 44.1829C93.3717 44.0368 92.0233 42.7581 92.0233 42.5389C92.0233 42.3635 91.6588 41.8082 91.4766 41.5524L92.0233 39.543L94.3558 37.7894L96.4696 34.1359V31.4323L94.3558 28.5095H92.0233L89.5085 26.2079V24.6734L94.3558 23.3216L96.4696 22.3352H100.515L101.864 24.6734C102.507 25.6964 103.795 27.8958 103.795 28.5095C103.795 29.1233 105.982 30.7138 107.075 31.4323L108.424 30.0805L105.909 26.2079L103.795 23.3216L107.075 22.3352L111.886 20.618L109.772 19.2663V17.6953H114L107.075 16.1608H101.864L92.0233 13.6399H86.4471H83.7501H80.2877H76.6067H71.6137L67.9327 12.2881H58.4932H53.6824C52.2829 12.2881 54.2655 10.7537 55.4318 9.98644L52.5161 9L48.1062 9.98644H43.2954L39.4321 16.1608H36.3343L35.2044 13.6399L32.6897 12.2881V17.6953C32.6897 18.309 30.6244 18.9983 29.5918 19.2663L31.159 26.2079H30.3936V27.7423L32.6897 28.5095L31.159 30.0805H28.0611L24.5988 31.4323L26.7126 34.1359L29.5918 35.6704L28.0611 37.7894L31.159 39.543V40.6756L32.6897 42.6119L31.159 45.3155L26.7126 43.7811L24.5988 40.6756H18.8039H12.0614L9 42.6119L12.0614 45.3155Z" stroke="#CEB9FF" shape-rendering="crispEdges"/>
<path d="M97.891 47.1788L98.4741 46.375L99.1666 46.0097C99.5675 45.7905 100.42 45.2571 100.624 44.8771C100.829 44.4971 101.438 44.6214 101.718 44.731L101.973 43.5619L102.228 42.5389C102.131 42.3806 101.893 41.9616 101.718 41.5524C101.543 41.1433 101.475 40.6513 101.463 40.4564L103.212 41.2602C103.188 41.5281 103.154 42.1151 103.212 42.3197C103.27 42.5243 103.406 43.0138 103.467 43.233L104.196 44.1829C104.22 44.6457 104.218 45.6589 104.014 46.0097C103.759 46.4481 103.212 45.7905 102.921 46.0097C102.629 46.2289 101.572 46.375 101.463 46.7404C101.353 47.1057 100.114 47.6172 99.7133 47.7268C99.3124 47.8364 98.7657 48.2748 98.6564 48.4575C98.547 48.6402 97.891 49.2613 97.6723 49.3709C97.4974 49.4586 97.0406 49.0177 96.8341 48.7863C96.6519 48.494 96.2947 47.8729 96.3238 47.7268C96.353 47.5807 97.3808 47.3006 97.891 47.1788Z" stroke="#CEB9FF" shape-rendering="crispEdges"/>
<path d="M100.078 38.6662C100.078 38.4324 100.442 37.5214 100.624 37.0952L99.7133 36.4741C99.5311 36.3523 99.1666 36.0649 99.1666 35.8896C99.1666 35.6704 98.9844 34.9031 98.9844 34.6474C98.9844 34.3916 98.6564 34.1359 98.4741 33.4052C98.2919 32.6745 97.891 32.6014 97.6723 32.1996C97.4537 31.7977 97.0528 30.7016 96.8341 30.3363C96.6154 29.9709 97.891 31.2131 98.0732 31.4323C98.2555 31.6515 98.6564 32.2726 98.9844 32.6014C99.3124 32.9302 99.7133 33.4417 99.7133 33.734C99.7133 34.0263 100.078 34.3551 100.078 34.9031V35.8896C100.078 36.328 100.624 36.328 101.062 36.6933C101.412 36.9856 101.475 37.083 101.463 37.0952C101.949 37.3266 102.979 37.8624 103.212 38.1547C103.445 38.447 103.309 38.8854 103.212 39.0681C102.884 39.2264 102.177 39.543 101.973 39.543H100.624C100.442 39.3482 100.078 38.9 100.078 38.6662Z" stroke="#CEB9FF" shape-rendering="crispEdges"/>
<path d="M90.9299 57.92C90.7549 57.6862 90.857 57.1893 90.9299 56.9701C91.0635 56.6169 91.3964 55.8741 91.6588 55.7279C91.9868 55.5452 92.5335 56.3125 92.4606 56.9701C92.3877 57.6277 92.3877 58.2123 92.0597 58.5046C91.7317 58.7968 91.1486 58.2123 90.9299 57.92Z" stroke="#CEB9FF" shape-rendering="crispEdges"/>
<path d="M91.8775 65.1904C91.8775 64.8981 92.0597 63.1445 91.8775 62.706V62.4868C92.3999 62.5599 93.5102 62.7645 93.7726 62.9983C94.1007 63.2906 93.8455 63.656 93.7726 64.6424C93.6998 65.6288 94.5744 65.6654 95.3763 66.0307C96.1781 66.3961 95.8136 66.5787 95.8865 67.346C95.9594 68.1132 95.0847 67.6748 94.5744 67.6748C94.0642 67.6748 92.8251 67.2364 92.4606 66.871C92.0961 66.5057 91.8775 65.4827 91.8775 65.1904Z" stroke="#CEB9FF" shape-rendering="crispEdges"/>
<path d="M96.2145 73.2646C96.2874 72.8627 96.7247 72.0224 96.8341 71.7667C97.3079 71.7179 98.3284 71.6497 98.6199 71.7667C98.9844 71.9128 98.5106 72.68 98.4012 73.2646C98.2919 73.8491 97.4537 74.2145 96.6154 74.4337C95.7772 74.6529 96.1416 73.6665 96.2145 73.2646Z" stroke="#CEB9FF" shape-rendering="crispEdges"/>
<path d="M87.7956 76.37C88.0507 76.0047 89.0347 74.726 89.4721 74.4337C89.9701 74.592 91.0101 74.989 91.185 75.3105C91.4037 75.7124 91.4037 76.1143 91.4037 76.37C91.4037 76.6258 91.4766 77.7584 91.4037 78.0506C91.3308 78.3429 91.0757 78.7448 90.7841 79.512C90.4925 80.2793 90.5654 80.2062 90.4925 81.0465C90.4196 81.8868 89.9094 82.1791 89.4721 82.9828C89.0347 83.7866 87.7956 83.6404 87.3947 83.7135C86.9938 83.7866 86.3742 83.6039 86.0826 83.4212C85.791 83.2386 85.3901 82.9098 85.0986 82.8001C84.807 82.6905 83.9323 82.1791 83.6043 81.9598C83.2763 81.7406 83.2763 80.9734 82.9118 80.2062C82.5474 79.4389 83.1305 79.2197 83.2763 79.0371C83.4221 78.8544 84.5154 78.964 85.0986 78.7448C85.6817 78.5256 86.3013 78.0872 86.7022 77.7584C87.1031 77.4295 87.5404 76.7354 87.7956 76.37Z" stroke="#CEB9FF" shape-rendering="crispEdges"/>
<path d="M91.9868 84.0789C91.7681 83.6039 91.9868 82.5079 91.9868 81.5214C92.2541 81.083 92.9271 80.1404 93.4811 79.8774C94.1735 79.5486 94.7931 79.8774 95.6678 79.8774C96.5425 79.8774 96.2145 80.2062 96.2145 80.7177C96.2145 81.2292 95.7043 81.2292 95.3398 81.5214C94.9753 81.8137 95.3763 81.9598 95.3398 83.7135C95.3034 85.4672 94.5744 84.0789 94.3193 84.0789C94.0642 84.0789 93.9184 83.4212 93.4811 82.9828C93.0437 82.5444 93.2624 84.0789 92.7886 84.9192C92.3148 85.7595 92.2055 84.5538 91.9868 84.0789Z" stroke="#CEB9FF" shape-rendering="crispEdges"/>
<path d="M73.3995 79.0371C72.9913 78.3648 71.8931 76.4918 71.395 75.6393C71.9781 75.822 73.1954 76.2239 73.3995 76.37C73.6546 76.5527 74.092 76.8085 74.8209 77.2469C75.5498 77.6853 75.9507 78.7448 76.3152 79.0371C76.6796 79.3293 77.9552 79.8774 78.4655 80.535C78.9757 81.1926 78.8664 81.5214 79.2673 82.2887C79.6682 83.0559 79.9962 82.9828 80.6522 84.0789C81.3082 85.1749 80.798 84.7365 80.6522 85.2114C80.5064 85.6864 79.8504 86.4171 79.2673 86.6728C78.6841 86.9286 78.2832 86.1613 77.9552 85.796C77.6272 85.4306 77.445 84.4442 76.6796 83.4212C75.9143 82.3983 75.4769 82.4713 74.8209 81.5214C74.1649 80.5715 73.9098 79.8774 73.3995 79.0371Z" stroke="#CEB9FF" shape-rendering="crispEdges"/>
<path d="M80.6522 87.8419C79.7046 87.7323 80.6522 86.6728 81.2718 86.271H81.8549H83.6043C83.9323 86.271 84.7341 86.6728 85.3537 86.6728C85.9733 86.6728 87.1395 87.2208 87.3947 87.4766C87.6498 87.7323 87.7956 87.8419 87.7956 88.3534C87.7956 88.8649 87.1395 88.6457 86.4835 88.938C85.8275 89.2303 86.0826 88.4265 83.2763 87.8419C80.47 87.2574 81.5998 87.9515 80.6522 87.8419Z" stroke="#CEB9FF" shape-rendering="crispEdges"/>
<path d="M73.5453 71.109C73.312 70.8752 73.6425 70.4027 73.8369 70.1957C73.9341 70.4271 74.1284 70.9337 74.1284 71.109C74.1284 71.3282 74.3835 71.7667 74.8209 72.2416C75.2582 72.7166 75.3311 72.6435 75.6956 72.9723C76.06 73.3011 76.1329 73.2646 76.6796 73.7761C77.2263 74.2876 76.9347 74.4337 77.6637 74.9817C78.3926 75.5297 77.9552 75.6393 78.1739 76.1874C78.3926 76.7354 78.4655 76.6988 78.757 77.5026C79.0486 78.3064 78.4655 77.7584 78.1739 78.0506C77.8823 78.3429 77.6637 77.7584 76.9347 77.5026C76.2058 77.2469 76.3152 77.0277 76.1329 76.37C75.9507 75.7124 75.8414 75.6393 75.6956 75.3105C75.5498 74.9817 75.2218 74.0318 74.8938 73.5934C74.5658 73.155 74.3835 72.7166 74.1284 72.2416C73.8733 71.7667 73.8369 71.4013 73.5453 71.109Z" stroke="#CEB9FF" shape-rendering="crispEdges"/>
</g>
<defs>
<filter id="filter0_d_68_54" x="0.0694332" y="0.381445" width="122.139" height="97.2186" filterUnits="userSpaceOnUse" color-interpolation-filters="sRGB">
<feFlood flood-opacity="0" result="BackgroundImageFix"/>
<feColorMatrix in="SourceAlpha" type="matrix" values="0 0 0 0 0 0 0 0 0 0 0 0 0 0 0 0 0 0 127 0" result="hardAlpha"/>
<feOffset/>
<feGaussianBlur stdDeviation="4.05"/>
<feComposite in2="hardAlpha" operator="out"/>
<feColorMatrix type="matrix" values="0 0 0 0 0.725 0 0 0 0 0.949583 0 0 0 0 1 0 0 0 1 0"/>
<feBlend mode="normal" in2="BackgroundImageFix" result="effect1_dropShadow_68_54"/>
<feBlend mode="normal" in="SourceGraphic" in2="effect1_dropShadow_68_54" result="shape"/>
</filter>
</defs>
</svg>
