<svg width="123" height="84" viewBox="0 0 123 84" fill="none" xmlns="http://www.w3.org/2000/svg">
<g id="europe" filter="url(#filter0_d_68_46)">
<path d="M24.8564 63.8208H30.8508L32.0755 63.113V60.1532V57.9012L30.8508 56.8717L28.4015 55.1987H32.0755L34.2026 54.0405L36.7808 51.6598L38.3278 50.2443L39.9392 49.4078L41.035 46.9627L41.6151 45.7402L45.6114 46.448L46.8361 45.7402L45.6114 44.582L44.709 42.7161L46.1915 41.3005L48.1252 42.137V43.2952V45.7402H60.7588C62.3057 45.7402 62.7354 44.1102 62.7569 43.2952V40.3354L64.4972 39.3702L65.4641 37.5042H68.6225L69.5893 35.767L68.6225 34.9305H64.4972H62.7569C62.3702 34.6088 61.5967 33.8238 61.5967 33.2576C61.5967 32.5498 64.4972 29.976 64.4972 29.1396C64.4972 28.4704 64.1105 26.9733 63.9171 26.3084L60.7588 27.5953L55.989 29.976L56.6335 33.2576V37.0538L55.2155 40.3354L53.6685 41.7509L51.6704 42.137L51.1547 40.3354L49.7366 37.5042L48.1252 37.0538L44.709 38.0833L41.6151 38.7911V35.767C41.5721 34.6946 41.744 32.5498 42.7753 32.5498C43.8066 32.5498 45.9122 31.3058 46.8361 30.6838C47.919 30.6838 51.8422 26.1369 53.6685 23.8634L58.825 20.6462H63.9171H68.6225L71.5875 21.4827L73.3923 22.1904H74.4236H76.9374L78.3554 23.8634L81.0626 24.5712L79.6446 25.7293L77.6464 24.5712H74.4236V26.3084L76.0994 28.3031L77.6464 29.1396L79.6446 30.6838L81.0626 31.842L83.3186 29.1396L84.0276 28.3031L86.1547 27.1449L87.6372 25.7293L88.9908 24.5712L89.6998 25.7293H91.3112C91.5476 25.3433 92.1621 24.5712 92.7293 24.5712C93.2965 24.5712 94.1688 22.984 94.5341 22.1904C95.0712 22.7481 96.4291 24.0049 97.5635 24.5712C98.698 25.1374 101.689 24.3352 103.042 23.8634L106.072 22.1904C108.805 22.1904 110.992 23.3057 111.744 23.8634L112.582 26.3084H110.197C110.004 26.6302 109.475 27.3379 108.908 27.5953C108.341 27.8527 107.726 28.732 107.49 29.1396V30.6838H109.617L108.908 32.5498L109.617 35.767V38.0833L111.164 40.3354L111.744 41.3005L111.164 41.7509C110.648 41.8367 109.475 42.1498 108.908 42.7161C108.341 43.2823 109.144 44.9681 109.617 45.7402H111.164L112.582 44.3247L114 43.2952V49.4078H106.072H103.042L101.495 50.2443V51.6598H103.042L103.816 52.2389V54.0405V56.8717V58.7376H102.656L102.076 59.188L99.6906 60.1532L100.4 61.7618L102.076 63.113V65.6867H92.7293V63.8208L90.86 63.113H89.6998L88.2818 61.7618L87.6372 59.5741C87.4868 59.0165 87.1602 57.6953 87.0571 56.8717C86.954 56.0481 86.0688 56.5285 85.639 56.8717L83.3186 57.9012L82.4807 59.188L81.9006 61.7618L81.0626 60.1532L79.6446 57.9012H77.6464L74.4236 59.4454L73.3923 60.1532V67.231L71.5875 66.5232L68.6225 68.2605L66.7532 69.9334V73.794L64.4972 74.6305V71.9281L63.9171 69.9334L61.5967 68.2605L59.663 64.979C58.954 64.357 57.3554 63.113 56.6335 63.113C55.9116 63.113 54.356 61.1398 53.6685 60.1532H50.2523V61.7618C51.0258 62.4481 52.7919 64.0524 53.6685 64.979C54.5451 65.9055 57.4715 67.5527 58.825 68.2605L57.5359 71.6707C56.9988 72.3785 55.7827 73.9613 55.2155 74.6305C54.6483 75.2997 53.2173 74.9093 52.5727 74.6305V73.0863C53.8103 73.6525 54.8502 72.3785 55.2155 71.6707V68.2605L52.5727 66.5232C50.2007 66.3688 48.6194 63.2846 48.1252 61.7618C47.5236 61.6974 45.9982 61.6074 44.709 61.7618C43.4199 61.9162 42.8828 63.1988 42.7753 63.8208H37.6188L36.7808 64.979C34.5249 65.365 30.8508 72.8932 30.8508 73.794C30.8508 74.6949 24.8564 74.7592 24.8564 74.6305C24.8564 74.5276 22.5789 74.03 21.4401 73.794V63.8208L23.3094 63.113L24.8564 63.8208Z" stroke="#CEB9FF" shape-rendering="crispEdges"/>
<path d="M23.8895 49.5365L21.4401 49.4078V47.8636V45.7402L23.3094 44.582L24.8564 43.2952L27.1123 45.7402L26.1455 46.9627L23.8895 47.8636V49.5365Z" stroke="#CEB9FF" shape-rendering="crispEdges"/>
<path d="M30.8508 51.6598L28.4015 49.4078L30.8508 46.9627L30.1418 44.582L29.2394 44.3247L27.8214 41.4935L28.4015 40.3354L30.1418 39.3702L30.8508 42.137L32.0755 44.3247L33.6869 46.1263L34.9116 46.9627L35.6851 49.4078L34.2026 49.5365L32.0755 50.9521L30.8508 51.6598Z" stroke="#CEB9FF" shape-rendering="crispEdges"/>
<path d="M96.7256 20.6462L94.5341 18.5229L96.7256 15.2413L97.5635 14.2762H101.495L106.072 12.8606H108.908L107.49 15.2413H103.816C103.042 15.7561 101.276 16.8499 100.4 17.1073C99.523 17.3647 100.034 18.1582 100.4 18.5229L98.6593 20.6462H96.7256Z" stroke="#CEB9FF" shape-rendering="crispEdges"/>
<path d="M51.1547 11.7024C50.682 11.0375 49.5562 9.56622 48.8343 9H51.6704H58.825H64.4972L62.7569 10.7373L61.5967 11.7024L60.7588 12.8606L58.825 11.7024C58.0945 11.7024 56.5046 11.9341 55.989 12.8606C55.4733 13.7872 54.2271 14.1904 53.6685 14.2762L51.1547 11.7024Z" stroke="#CEB9FF" shape-rendering="crispEdges"/>
<path d="M11.965 30.6838C11.213 30.4479 9.56722 29.8087 9 29.1396L10.6759 27.5953L13.1252 28.3031C14.4359 27.6382 17.2634 26.3084 18.0884 26.3084C19.1197 26.3084 17.7661 28.3031 17.0571 29.1396C16.3481 29.976 15.2523 29.1396 15.1878 30.6838C15.1363 31.9192 13.0178 31.1986 11.965 30.6838Z" stroke="#CEB9FF" shape-rendering="crispEdges"/>
</g>
<defs>
<filter id="filter0_d_68_46" x="0.208593" y="0.4" width="122.391" height="83.1999" filterUnits="userSpaceOnUse" color-interpolation-filters="sRGB">
<feFlood flood-opacity="0" result="BackgroundImageFix"/>
<feColorMatrix in="SourceAlpha" type="matrix" values="0 0 0 0 0 0 0 0 0 0 0 0 0 0 0 0 0 0 127 0" result="hardAlpha"/>
<feOffset/>
<feGaussianBlur stdDeviation="4.05"/>
<feComposite in2="hardAlpha" operator="out"/>
<feColorMatrix type="matrix" values="0 0 0 0 0.725 0 0 0 0 0.949583 0 0 0 0 1 0 0 0 1 0"/>
<feBlend mode="normal" in2="BackgroundImageFix" result="effect1_dropShadow_68_46"/>
<feBlend mode="normal" in="SourceGraphic" in2="effect1_dropShadow_68_46" result="shape"/>
</filter>
</defs>
</svg>
