<svg width="1061" height="1061" viewBox="0 0 1061 1061" fill="none" xmlns="http://www.w3.org/2000/svg">
<circle cx="530" cy="530.001" r="374.5" stroke="white" stroke-opacity="0.79"/>
<circle cx="529.5" cy="529.5" r="187" stroke="white" stroke-opacity="0.79"/>
<circle cx="530.1" cy="530.101" r="280.6" stroke="white" stroke-opacity="0.79"/>
<circle cx="529.75" cy="529.75" r="93.25" stroke="white" stroke-opacity="0.79"/>
<path opacity="0.7" d="M416.785 173.045C479.5 153.098 546.36 150.003 610.65 164.072L530.468 530.467L416.785 173.045Z" fill="#8ABDFF" fill-opacity="0.7"/>
<path opacity="0.7" d="M610.79 164.807C674.869 178.983 734.09 209.769 782.506 254.075L530 530.001L610.79 164.807Z" fill="#7B3AFD" fill-opacity="0.7"/>
<path opacity="0.7" d="M782.806 253.613C831.302 297.972 867.273 354.31 887.106 416.97L530 530.001L782.806 253.613Z" fill="#530273" fill-opacity="0.7"/>
<path opacity="0.7" d="M886.571 417.225C906.359 479.791 909.337 546.462 895.204 610.543L530.001 530L886.571 417.225Z" fill="#FB0BB3" fill-opacity="0.7"/>
<path opacity="0.7" d="M894.977 610.658C880.824 674.699 850.07 733.888 805.803 782.282L530.001 530L894.977 610.658Z" fill="#59002B" fill-opacity="0.7"/>
<path opacity="0.7" d="M805.64 783.252C761.203 831.617 704.823 867.438 642.161 887.119L530.001 530.001L805.64 783.252Z" fill="#9CF8FF" fill-opacity="0.7"/>
<path opacity="0.7" d="M642.03 886.948C579.397 906.605 512.696 909.436 448.623 895.158L530 530L642.03 886.948Z" fill="#A2E093" fill-opacity="0.7"/>
<path opacity="0.7" d="M448.929 895.474C384.801 881.249 325.545 850.401 277.112 806.028L530 530L448.929 895.474Z" fill="#DA1999" fill-opacity="0.7"/>
<path opacity="0.7" d="M278.037 806.311C229.554 762.101 193.557 705.911 173.662 643.386L530 530L278.037 806.311Z" fill="#4426EE" fill-opacity="0.7"/>
<path opacity="0.7" d="M173.459 643.292C153.58 580.731 150.512 514.041 164.563 449.92L530 530L173.459 643.292Z" fill="#DC9BDD" fill-opacity="0.7"/>
<path opacity="0.7" d="M163.553 449.559C177.667 385.26 208.452 325.807 252.815 277.171L530 530L163.553 449.559Z" fill="#2A61A9" fill-opacity="0.7"/>
<path opacity="0.7" d="M253.308 277.534C297.676 228.914 354.057 192.825 416.787 172.891L530.395 530.396L253.308 277.534Z" fill="#9E3BAD" fill-opacity="0.7"/>
<line x1="530.5" y1="156.001" x2="530.5" y2="905.001" stroke="white" stroke-opacity="0.9"/>
<line x1="904.5" y1="531" x2="155.5" y2="531" stroke="white" stroke-opacity="0.9"/>
<path d="M535.961 145H534.554V136.04C534.216 136.362 533.771 136.685 533.219 137.008C532.672 137.331 532.179 137.573 531.742 137.735V136.375C532.528 136.006 533.216 135.558 533.804 135.032C534.393 134.506 534.81 133.995 535.054 133.5H535.961V145ZM539.57 139.352C539.57 137.998 539.708 136.909 539.984 136.086C540.265 135.258 540.679 134.62 541.226 134.172C541.778 133.724 542.471 133.5 543.304 133.5C543.919 133.5 544.458 133.625 544.922 133.875C545.385 134.12 545.768 134.477 546.07 134.946C546.372 135.409 546.609 135.977 546.781 136.649C546.953 137.316 547.039 138.217 547.039 139.352C547.039 140.696 546.901 141.782 546.625 142.61C546.349 143.433 545.935 144.071 545.383 144.524C544.836 144.972 544.143 145.196 543.304 145.196C542.2 145.196 541.333 144.8 540.703 144.008C539.948 143.055 539.57 141.503 539.57 139.352ZM541.015 139.352C541.015 141.232 541.234 142.485 541.672 143.11C542.114 143.73 542.659 144.04 543.304 144.04C543.95 144.04 544.492 143.727 544.929 143.102C545.372 142.477 545.594 141.227 545.594 139.352C545.594 137.467 545.372 136.214 544.929 135.594C544.492 134.974 543.945 134.665 543.289 134.665C542.643 134.665 542.127 134.938 541.742 135.485C541.258 136.183 541.015 137.472 541.015 139.352ZM548.476 139.352C548.476 137.998 548.614 136.909 548.89 136.086C549.172 135.258 549.586 134.62 550.133 134.172C550.685 133.724 551.377 133.5 552.211 133.5C552.825 133.5 553.364 133.625 553.828 133.875C554.291 134.12 554.674 134.477 554.976 134.946C555.278 135.409 555.515 135.977 555.687 136.649C555.859 137.316 555.945 138.217 555.945 139.352C555.945 140.696 555.807 141.782 555.531 142.61C555.255 143.433 554.841 144.071 554.289 144.524C553.742 144.972 553.049 145.196 552.211 145.196C551.107 145.196 550.239 144.8 549.609 144.008C548.854 143.055 548.476 141.503 548.476 139.352ZM549.922 139.352C549.922 141.232 550.14 142.485 550.578 143.11C551.021 143.73 551.565 144.04 552.211 144.04C552.857 144.04 553.398 143.727 553.836 143.102C554.278 142.477 554.5 141.227 554.5 139.352C554.5 137.467 554.278 136.214 553.836 135.594C553.398 134.974 552.851 134.665 552.195 134.665C551.549 134.665 551.034 134.938 550.648 135.485C550.164 136.183 549.922 137.472 549.922 139.352ZM557.648 136.297C557.648 135.48 557.854 134.784 558.265 134.211C558.677 133.639 559.273 133.352 560.054 133.352C560.773 133.352 561.367 133.61 561.836 134.125C562.31 134.636 562.547 135.389 562.547 136.383C562.547 137.352 562.307 138.099 561.828 138.625C561.354 139.146 560.768 139.407 560.07 139.407C559.377 139.407 558.799 139.149 558.336 138.633C557.877 138.118 557.648 137.339 557.648 136.297ZM560.094 134.321C559.745 134.321 559.453 134.472 559.219 134.774C558.989 135.076 558.875 135.631 558.875 136.438C558.875 137.172 558.992 137.691 559.226 137.993C559.461 138.29 559.75 138.438 560.094 138.438C560.448 138.438 560.739 138.287 560.969 137.985C561.203 137.683 561.32 137.131 561.32 136.329C561.32 135.589 561.203 135.071 560.969 134.774C560.734 134.472 560.442 134.321 560.094 134.321ZM560.101 145.422L566.367 133.352H567.508L561.265 145.422H560.101ZM565.054 142.313C565.054 141.49 565.26 140.795 565.672 140.227C566.083 139.654 566.682 139.368 567.469 139.368C568.187 139.368 568.781 139.625 569.25 140.141C569.724 140.652 569.961 141.404 569.961 142.399C569.961 143.368 569.721 144.115 569.242 144.641C568.768 145.162 568.179 145.422 567.476 145.422C566.784 145.422 566.205 145.165 565.742 144.649C565.284 144.128 565.054 143.349 565.054 142.313ZM567.508 140.336C567.153 140.336 566.859 140.487 566.625 140.79C566.396 141.092 566.281 141.646 566.281 142.454C566.281 143.183 566.398 143.698 566.633 144C566.867 144.303 567.156 144.454 567.5 144.454C567.859 144.454 568.153 144.303 568.383 144C568.617 143.698 568.734 143.146 568.734 142.344C568.734 141.605 568.617 141.086 568.383 140.79C568.148 140.487 567.857 140.336 567.508 140.336Z" fill="white"/>
<path d="M533.758 245.048V243.696H541.172V244.79C540.442 245.566 539.719 246.597 539 247.884C538.286 249.17 537.734 250.493 537.344 251.852C537.062 252.811 536.883 253.86 536.804 255.001H535.359C535.375 254.1 535.552 253.011 535.89 251.735C536.229 250.459 536.713 249.23 537.344 248.048C537.979 246.86 538.653 245.86 539.367 245.048H533.758ZM542.57 252.001L544.047 251.876C544.156 252.594 544.409 253.136 544.804 253.501C545.205 253.86 545.687 254.04 546.25 254.04C546.927 254.04 547.5 253.785 547.969 253.274C548.437 252.764 548.672 252.087 548.672 251.243C548.672 250.441 548.445 249.808 547.992 249.344C547.544 248.881 546.955 248.649 546.226 248.649C545.773 248.649 545.364 248.753 545 248.962C544.635 249.165 544.349 249.43 544.14 249.759L542.82 249.587L543.929 243.704H549.625V245.048H545.054L544.437 248.126C545.125 247.647 545.846 247.407 546.601 247.407C547.601 247.407 548.445 247.753 549.133 248.446C549.82 249.139 550.164 250.029 550.164 251.118C550.164 252.154 549.862 253.05 549.258 253.805C548.523 254.733 547.521 255.196 546.25 255.196C545.208 255.196 544.357 254.904 543.695 254.321C543.039 253.738 542.664 252.964 542.57 252.001ZM551.742 246.298C551.742 245.48 551.948 244.785 552.359 244.212C552.771 243.639 553.367 243.352 554.148 243.352C554.867 243.352 555.461 243.61 555.929 244.126C556.403 244.636 556.64 245.389 556.64 246.384C556.64 247.352 556.401 248.1 555.922 248.626C555.448 249.147 554.862 249.407 554.164 249.407C553.471 249.407 552.893 249.149 552.429 248.634C551.971 248.118 551.742 247.339 551.742 246.298ZM554.187 244.321C553.838 244.321 553.547 244.472 553.312 244.774C553.083 245.076 552.969 245.631 552.969 246.438C552.969 247.173 553.086 247.691 553.32 247.993C553.554 248.29 553.844 248.438 554.187 248.438C554.541 248.438 554.833 248.287 555.062 247.985C555.297 247.683 555.414 247.131 555.414 246.329C555.414 245.589 555.297 245.071 555.062 244.774C554.828 244.472 554.536 244.321 554.187 244.321ZM554.195 255.423L560.461 243.352H561.601L555.359 255.423H554.195ZM559.148 252.313C559.148 251.49 559.354 250.795 559.765 250.227C560.177 249.654 560.776 249.368 561.562 249.368C562.281 249.368 562.875 249.626 563.344 250.141C563.817 250.652 564.054 251.404 564.054 252.399C564.054 253.368 563.815 254.115 563.336 254.641C562.862 255.162 562.273 255.423 561.57 255.423C560.877 255.423 560.299 255.165 559.836 254.649C559.377 254.128 559.148 253.35 559.148 252.313ZM561.601 250.337C561.247 250.337 560.953 250.488 560.719 250.79C560.489 251.092 560.375 251.647 560.375 252.454C560.375 253.183 560.492 253.699 560.726 254.001C560.961 254.303 561.25 254.454 561.594 254.454C561.953 254.454 562.247 254.303 562.476 254.001C562.711 253.699 562.828 253.147 562.828 252.344C562.828 251.605 562.711 251.087 562.476 250.79C562.242 250.488 561.95 250.337 561.601 250.337Z" fill="white"/>
<path d="M533.664 345L535.14 344.875C535.25 345.594 535.502 346.135 535.898 346.5C536.299 346.859 536.781 347.039 537.344 347.039C538.021 347.039 538.594 346.784 539.062 346.273C539.531 345.763 539.765 345.086 539.765 344.242C539.765 343.44 539.539 342.807 539.086 342.344C538.638 341.88 538.049 341.648 537.32 341.648C536.867 341.648 536.458 341.753 536.094 341.961C535.729 342.164 535.442 342.43 535.234 342.758L533.914 342.586L535.023 336.703H540.719V338.047H536.148L535.531 341.125C536.219 340.646 536.94 340.406 537.695 340.406C538.695 340.406 539.539 340.753 540.226 341.445C540.914 342.138 541.258 343.029 541.258 344.117C541.258 345.154 540.955 346.049 540.351 346.805C539.617 347.732 538.614 348.195 537.344 348.195C536.302 348.195 535.45 347.904 534.789 347.32C534.133 346.737 533.758 345.964 533.664 345ZM542.57 342.352C542.57 340.997 542.708 339.909 542.984 339.086C543.265 338.258 543.679 337.62 544.226 337.172C544.778 336.724 545.471 336.5 546.304 336.5C546.919 336.5 547.458 336.625 547.922 336.875C548.385 337.12 548.768 337.477 549.07 337.945C549.372 338.409 549.609 338.977 549.781 339.648C549.953 340.315 550.039 341.216 550.039 342.352C550.039 343.695 549.901 344.781 549.625 345.609C549.349 346.432 548.935 347.07 548.383 347.523C547.836 347.971 547.143 348.195 546.304 348.195C545.2 348.195 544.333 347.799 543.703 347.008C542.948 346.055 542.57 344.503 542.57 342.352ZM544.015 342.352C544.015 344.232 544.234 345.484 544.672 346.109C545.114 346.729 545.659 347.039 546.304 347.039C546.95 347.039 547.492 346.727 547.929 346.102C548.372 345.477 548.594 344.227 548.594 342.352C548.594 340.466 548.372 339.214 547.929 338.594C547.492 337.974 546.945 337.664 546.289 337.664C545.643 337.664 545.127 337.938 544.742 338.484C544.258 339.182 544.015 340.471 544.015 342.352ZM551.742 339.297C551.742 338.479 551.948 337.784 552.359 337.211C552.771 336.638 553.367 336.352 554.148 336.352C554.867 336.352 555.461 336.609 555.929 337.125C556.403 337.635 556.64 338.388 556.64 339.383C556.64 340.352 556.401 341.099 555.922 341.625C555.448 342.146 554.862 342.406 554.164 342.406C553.471 342.406 552.893 342.148 552.429 341.633C551.971 341.117 551.742 340.339 551.742 339.297ZM554.187 337.32C553.838 337.32 553.547 337.471 553.312 337.773C553.083 338.076 552.969 338.63 552.969 339.438C552.969 340.172 553.086 340.69 553.32 340.992C553.554 341.289 553.844 341.438 554.187 341.438C554.541 341.438 554.833 341.286 555.062 340.984C555.297 340.682 555.414 340.13 555.414 339.328C555.414 338.589 555.297 338.07 555.062 337.773C554.828 337.471 554.536 337.32 554.187 337.32ZM554.195 348.422L560.461 336.352H561.601L555.359 348.422H554.195ZM559.148 345.312C559.148 344.49 559.354 343.794 559.765 343.227C560.177 342.654 560.776 342.367 561.562 342.367C562.281 342.367 562.875 342.625 563.344 343.141C563.817 343.651 564.054 344.404 564.054 345.398C564.054 346.367 563.815 347.115 563.336 347.641C562.862 348.161 562.273 348.422 561.57 348.422C560.877 348.422 560.299 348.164 559.836 347.648C559.377 347.128 559.148 346.349 559.148 345.312ZM561.601 343.336C561.247 343.336 560.953 343.487 560.719 343.789C560.489 344.091 560.375 344.646 560.375 345.453C560.375 346.182 560.492 346.698 560.726 347C560.961 347.302 561.25 347.453 561.594 347.453C561.953 347.453 562.247 347.302 562.476 347C562.711 346.698 562.828 346.146 562.828 345.344C562.828 344.604 562.711 344.086 562.476 343.789C562.242 343.487 561.95 343.336 561.601 343.336Z" fill="white"/>
<path d="M541.054 457.648V459H533.484C533.474 458.661 533.528 458.336 533.648 458.023C533.841 457.508 534.148 457 534.57 456.5C534.997 456 535.612 455.422 536.414 454.766C537.659 453.745 538.5 452.938 538.937 452.344C539.375 451.745 539.594 451.18 539.594 450.648C539.594 450.091 539.393 449.622 538.992 449.242C538.596 448.857 538.078 448.664 537.437 448.664C536.76 448.664 536.219 448.867 535.812 449.273C535.406 449.68 535.2 450.242 535.195 450.961L533.75 450.812C533.849 449.734 534.221 448.914 534.867 448.352C535.513 447.784 536.38 447.5 537.469 447.5C538.567 447.5 539.437 447.805 540.078 448.414C540.719 449.023 541.039 449.779 541.039 450.68C541.039 451.138 540.945 451.589 540.758 452.031C540.57 452.474 540.258 452.94 539.82 453.43C539.388 453.919 538.666 454.591 537.656 455.445C536.812 456.154 536.271 456.635 536.031 456.891C535.791 457.141 535.594 457.393 535.437 457.648H541.054ZM542.57 456L544.047 455.875C544.156 456.594 544.409 457.135 544.804 457.5C545.205 457.859 545.687 458.039 546.25 458.039C546.927 458.039 547.5 457.784 547.969 457.273C548.437 456.763 548.672 456.086 548.672 455.242C548.672 454.44 548.445 453.807 547.992 453.344C547.544 452.88 546.955 452.648 546.226 452.648C545.773 452.648 545.364 452.753 545 452.961C544.635 453.164 544.349 453.43 544.14 453.758L542.82 453.586L543.929 447.703H549.625V449.047H545.054L544.437 452.125C545.125 451.646 545.846 451.406 546.601 451.406C547.601 451.406 548.445 451.753 549.133 452.445C549.82 453.138 550.164 454.029 550.164 455.117C550.164 456.154 549.862 457.049 549.258 457.805C548.523 458.732 547.521 459.195 546.25 459.195C545.208 459.195 544.357 458.904 543.695 458.32C543.039 457.737 542.664 456.964 542.57 456ZM551.742 450.297C551.742 449.479 551.948 448.784 552.359 448.211C552.771 447.638 553.367 447.352 554.148 447.352C554.867 447.352 555.461 447.609 555.929 448.125C556.403 448.635 556.64 449.388 556.64 450.383C556.64 451.352 556.401 452.099 555.922 452.625C555.448 453.146 554.862 453.406 554.164 453.406C553.471 453.406 552.893 453.148 552.429 452.633C551.971 452.117 551.742 451.339 551.742 450.297ZM554.187 448.32C553.838 448.32 553.547 448.471 553.312 448.773C553.083 449.076 552.969 449.63 552.969 450.438C552.969 451.172 553.086 451.69 553.32 451.992C553.554 452.289 553.844 452.438 554.187 452.438C554.541 452.438 554.833 452.286 555.062 451.984C555.297 451.682 555.414 451.13 555.414 450.328C555.414 449.589 555.297 449.07 555.062 448.773C554.828 448.471 554.536 448.32 554.187 448.32ZM554.195 459.422L560.461 447.352H561.601L555.359 459.422H554.195ZM559.148 456.312C559.148 455.49 559.354 454.794 559.765 454.227C560.177 453.654 560.776 453.367 561.562 453.367C562.281 453.367 562.875 453.625 563.344 454.141C563.817 454.651 564.054 455.404 564.054 456.398C564.054 457.367 563.815 458.115 563.336 458.641C562.862 459.161 562.273 459.422 561.57 459.422C560.877 459.422 560.299 459.164 559.836 458.648C559.377 458.128 559.148 457.349 559.148 456.312ZM561.601 454.336C561.247 454.336 560.953 454.487 560.719 454.789C560.489 455.091 560.375 455.646 560.375 456.453C560.375 457.182 560.492 457.698 560.726 458C560.961 458.302 561.25 458.453 561.594 458.453C561.953 458.453 562.247 458.302 562.476 458C562.711 457.698 562.828 457.146 562.828 456.344C562.828 455.604 562.711 455.086 562.476 454.789C562.242 454.487 561.95 454.336 561.601 454.336Z" fill="white"/>
</svg>
