<svg width="970" height="766" viewBox="0 0 970 766" fill="none" xmlns="http://www.w3.org/2000/svg">
<g id="grapheabrre">
<g id="Line 9" filter="url(#filter0_d_106_302)">
<line x1="57" y1="38.0002" x2="57" y2="726" stroke="#B9F2FF" stroke-width="2"/>
</g>
<g id="Line 10" filter="url(#filter1_d_106_302)">
<line x1="932" y1="727" x2="56" y2="727" stroke="#B9F2FF" stroke-width="2"/>
</g>
<g id="Group6">
<rect id="Rectangle 53" x="58.5" y="38.5" width="111" height="687" fill="url(#paint0_linear_106_302)" stroke="white"/>
<rect id="Rectangle 56" x="438" y="42" width="112" height="684" fill="#D9D9D9"/>
<rect id="Rectangle 54" x="180" y="716" width="112" height="10" fill="#D9D9D9"/>
<rect id="Rectangle 57" x="568" y="716" width="112" height="10" fill="#D9D9D9"/>
<rect id="Rectangle 55" x="308" y="512" width="112" height="214" fill="#D9D9D9"/>
<rect id="Rectangle 58" x="701" y="512" width="112" height="214" fill="#D9D9D9"/>
</g>
<g id="nombres">
<path id="-100" d="M4.10938 716.57V717.758H0.296875V716.57H4.10938ZM10.1172 710.562V722H8.67188V712.367L5.75781 713.43V712.125L9.89062 710.562H10.1172ZM21.5078 715.406V717.141C21.5078 718.073 21.4245 718.859 21.2578 719.5C21.0911 720.141 20.8516 720.656 20.5391 721.047C20.2266 721.438 19.849 721.721 19.4062 721.898C18.9688 722.07 18.474 722.156 17.9219 722.156C17.4844 722.156 17.0807 722.102 16.7109 721.992C16.3411 721.883 16.0078 721.708 15.7109 721.469C15.4193 721.224 15.1693 720.906 14.9609 720.516C14.7526 720.125 14.5938 719.651 14.4844 719.094C14.375 718.536 14.3203 717.885 14.3203 717.141V715.406C14.3203 714.474 14.4036 713.693 14.5703 713.062C14.7422 712.432 14.9844 711.927 15.2969 711.547C15.6094 711.161 15.9844 710.885 16.4219 710.719C16.8646 710.552 17.3594 710.469 17.9062 710.469C18.349 710.469 18.7552 710.523 19.125 710.633C19.5 710.737 19.8333 710.906 20.125 711.141C20.4167 711.37 20.6641 711.677 20.8672 712.062C21.0755 712.443 21.2344 712.909 21.3438 713.461C21.4531 714.013 21.5078 714.661 21.5078 715.406ZM20.0547 717.375V715.164C20.0547 714.654 20.0234 714.206 19.9609 713.82C19.9036 713.43 19.8177 713.096 19.7031 712.82C19.5885 712.544 19.4427 712.32 19.2656 712.148C19.0938 711.977 18.8932 711.852 18.6641 711.773C18.4401 711.69 18.1875 711.648 17.9062 711.648C17.5625 711.648 17.2578 711.714 16.9922 711.844C16.7266 711.969 16.5026 712.169 16.3203 712.445C16.1432 712.721 16.0078 713.083 15.9141 713.531C15.8203 713.979 15.7734 714.523 15.7734 715.164V717.375C15.7734 717.885 15.8021 718.336 15.8594 718.727C15.9219 719.117 16.013 719.456 16.1328 719.742C16.2526 720.023 16.3984 720.255 16.5703 720.438C16.7422 720.62 16.9401 720.755 17.1641 720.844C17.3932 720.927 17.6458 720.969 17.9219 720.969C18.276 720.969 18.5859 720.901 18.8516 720.766C19.1172 720.63 19.3385 720.419 19.5156 720.133C19.6979 719.841 19.8333 719.469 19.9219 719.016C20.0104 718.557 20.0547 718.01 20.0547 717.375ZM30.5078 715.406V717.141C30.5078 718.073 30.4245 718.859 30.2578 719.5C30.0911 720.141 29.8516 720.656 29.5391 721.047C29.2266 721.438 28.849 721.721 28.4062 721.898C27.9688 722.07 27.474 722.156 26.9219 722.156C26.4844 722.156 26.0807 722.102 25.7109 721.992C25.3411 721.883 25.0078 721.708 24.7109 721.469C24.4193 721.224 24.1693 720.906 23.9609 720.516C23.7526 720.125 23.5938 719.651 23.4844 719.094C23.375 718.536 23.3203 717.885 23.3203 717.141V715.406C23.3203 714.474 23.4036 713.693 23.5703 713.062C23.7422 712.432 23.9844 711.927 24.2969 711.547C24.6094 711.161 24.9844 710.885 25.4219 710.719C25.8646 710.552 26.3594 710.469 26.9062 710.469C27.349 710.469 27.7552 710.523 28.125 710.633C28.5 710.737 28.8333 710.906 29.125 711.141C29.4167 711.37 29.6641 711.677 29.8672 712.062C30.0755 712.443 30.2344 712.909 30.3438 713.461C30.4531 714.013 30.5078 714.661 30.5078 715.406ZM29.0547 717.375V715.164C29.0547 714.654 29.0234 714.206 28.9609 713.82C28.9036 713.43 28.8177 713.096 28.7031 712.82C28.5885 712.544 28.4427 712.32 28.2656 712.148C28.0938 711.977 27.8932 711.852 27.6641 711.773C27.4401 711.69 27.1875 711.648 26.9062 711.648C26.5625 711.648 26.2578 711.714 25.9922 711.844C25.7266 711.969 25.5026 712.169 25.3203 712.445C25.1432 712.721 25.0078 713.083 24.9141 713.531C24.8203 713.979 24.7734 714.523 24.7734 715.164V717.375C24.7734 717.885 24.8021 718.336 24.8594 718.727C24.9219 719.117 25.013 719.456 25.1328 719.742C25.2526 720.023 25.3984 720.255 25.5703 720.438C25.7422 720.62 25.9401 720.755 26.1641 720.844C26.3932 720.927 26.6458 720.969 26.9219 720.969C27.276 720.969 27.5859 720.901 27.8516 720.766C28.1172 720.63 28.3385 720.419 28.5156 720.133C28.6979 719.841 28.8333 719.469 28.9219 719.016C29.0104 718.557 29.0547 718.01 29.0547 717.375Z" fill="white"/>
<path id="0" d="M31.0859 375.406V377.141C31.0859 378.073 31.0026 378.859 30.8359 379.5C30.6693 380.141 30.4297 380.656 30.1172 381.047C29.8047 381.438 29.4271 381.721 28.9844 381.898C28.5469 382.07 28.0521 382.156 27.5 382.156C27.0625 382.156 26.6589 382.102 26.2891 381.992C25.9193 381.883 25.5859 381.708 25.2891 381.469C24.9974 381.224 24.7474 380.906 24.5391 380.516C24.3307 380.125 24.1719 379.651 24.0625 379.094C23.9531 378.536 23.8984 377.885 23.8984 377.141V375.406C23.8984 374.474 23.9818 373.693 24.1484 373.062C24.3203 372.432 24.5625 371.927 24.875 371.547C25.1875 371.161 25.5625 370.885 26 370.719C26.4427 370.552 26.9375 370.469 27.4844 370.469C27.9271 370.469 28.3333 370.523 28.7031 370.633C29.0781 370.737 29.4115 370.906 29.7031 371.141C29.9948 371.37 30.2422 371.677 30.4453 372.062C30.6536 372.443 30.8125 372.909 30.9219 373.461C31.0312 374.013 31.0859 374.661 31.0859 375.406ZM29.6328 377.375V375.164C29.6328 374.654 29.6016 374.206 29.5391 373.82C29.4818 373.43 29.3958 373.096 29.2812 372.82C29.1667 372.544 29.0208 372.32 28.8438 372.148C28.6719 371.977 28.4714 371.852 28.2422 371.773C28.0182 371.69 27.7656 371.648 27.4844 371.648C27.1406 371.648 26.8359 371.714 26.5703 371.844C26.3047 371.969 26.0807 372.169 25.8984 372.445C25.7214 372.721 25.5859 373.083 25.4922 373.531C25.3984 373.979 25.3516 374.523 25.3516 375.164V377.375C25.3516 377.885 25.3802 378.336 25.4375 378.727C25.5 379.117 25.5911 379.456 25.7109 379.742C25.8307 380.023 25.9766 380.255 26.1484 380.438C26.3203 380.62 26.5182 380.755 26.7422 380.844C26.9714 380.927 27.224 380.969 27.5 380.969C27.8542 380.969 28.1641 380.901 28.4297 380.766C28.6953 380.63 28.9167 380.419 29.0938 380.133C29.276 379.841 29.4115 379.469 29.5 379.016C29.5885 378.557 29.6328 378.01 29.6328 377.375Z" fill="white"/>
<path id="50" d="M16.7734 204.586L15.6172 204.289L16.1875 198.625H22.0234V199.961H17.4141L17.0703 203.055C17.2786 202.935 17.5417 202.823 17.8594 202.719C18.1823 202.615 18.5521 202.562 18.9688 202.562C19.4948 202.562 19.9661 202.654 20.3828 202.836C20.7995 203.013 21.1536 203.268 21.4453 203.602C21.7422 203.935 21.9688 204.336 22.125 204.805C22.2812 205.273 22.3594 205.797 22.3594 206.375C22.3594 206.922 22.2839 207.424 22.1328 207.883C21.987 208.341 21.7656 208.742 21.4688 209.086C21.1719 209.424 20.7969 209.688 20.3438 209.875C19.8958 210.062 19.3672 210.156 18.7578 210.156C18.2995 210.156 17.8646 210.094 17.4531 209.969C17.0469 209.839 16.6823 209.643 16.3594 209.383C16.0417 209.117 15.7812 208.789 15.5781 208.398C15.3802 208.003 15.2552 207.539 15.2031 207.008H16.5781C16.6406 207.435 16.7656 207.794 16.9531 208.086C17.1406 208.378 17.3854 208.599 17.6875 208.75C17.9948 208.896 18.3516 208.969 18.7578 208.969C19.1016 208.969 19.4062 208.909 19.6719 208.789C19.9375 208.669 20.1615 208.497 20.3438 208.273C20.526 208.049 20.6641 207.779 20.7578 207.461C20.8568 207.143 20.9062 206.786 20.9062 206.391C20.9062 206.031 20.8568 205.698 20.7578 205.391C20.6589 205.083 20.5104 204.815 20.3125 204.586C20.1198 204.357 19.8828 204.18 19.6016 204.055C19.3203 203.924 18.9974 203.859 18.6328 203.859C18.1484 203.859 17.7812 203.924 17.5312 204.055C17.2865 204.185 17.0339 204.362 16.7734 204.586ZM31.0859 203.406V205.141C31.0859 206.073 31.0026 206.859 30.8359 207.5C30.6693 208.141 30.4297 208.656 30.1172 209.047C29.8047 209.438 29.4271 209.721 28.9844 209.898C28.5469 210.07 28.0521 210.156 27.5 210.156C27.0625 210.156 26.6589 210.102 26.2891 209.992C25.9193 209.883 25.5859 209.708 25.2891 209.469C24.9974 209.224 24.7474 208.906 24.5391 208.516C24.3307 208.125 24.1719 207.651 24.0625 207.094C23.9531 206.536 23.8984 205.885 23.8984 205.141V203.406C23.8984 202.474 23.9818 201.693 24.1484 201.062C24.3203 200.432 24.5625 199.927 24.875 199.547C25.1875 199.161 25.5625 198.885 26 198.719C26.4427 198.552 26.9375 198.469 27.4844 198.469C27.9271 198.469 28.3333 198.523 28.7031 198.633C29.0781 198.737 29.4115 198.906 29.7031 199.141C29.9948 199.37 30.2422 199.677 30.4453 200.062C30.6536 200.443 30.8125 200.909 30.9219 201.461C31.0312 202.013 31.0859 202.661 31.0859 203.406ZM29.6328 205.375V203.164C29.6328 202.654 29.6016 202.206 29.5391 201.82C29.4818 201.43 29.3958 201.096 29.2812 200.82C29.1667 200.544 29.0208 200.32 28.8438 200.148C28.6719 199.977 28.4714 199.852 28.2422 199.773C28.0182 199.69 27.7656 199.648 27.4844 199.648C27.1406 199.648 26.8359 199.714 26.5703 199.844C26.3047 199.969 26.0807 200.169 25.8984 200.445C25.7214 200.721 25.5859 201.083 25.4922 201.531C25.3984 201.979 25.3516 202.523 25.3516 203.164V205.375C25.3516 205.885 25.3802 206.336 25.4375 206.727C25.5 207.117 25.5911 207.456 25.7109 207.742C25.8307 208.023 25.9766 208.255 26.1484 208.438C26.3203 208.62 26.5182 208.755 26.7422 208.844C26.9714 208.927 27.224 208.969 27.5 208.969C27.8542 208.969 28.1641 208.901 28.4297 208.766C28.6953 208.63 28.9167 208.419 29.0938 208.133C29.276 207.841 29.4115 207.469 29.5 207.016C29.5885 206.557 29.6328 206.01 29.6328 205.375Z" fill="white"/>
<path id="-50" d="M13.1094 546.57V547.758H9.29688V546.57H13.1094ZM16.1953 546.586L15.0391 546.289L15.6094 540.625H21.4453V541.961H16.8359L16.4922 545.055C16.7005 544.935 16.9635 544.823 17.2812 544.719C17.6042 544.615 17.974 544.562 18.3906 544.562C18.9167 544.562 19.388 544.654 19.8047 544.836C20.2214 545.013 20.5755 545.268 20.8672 545.602C21.1641 545.935 21.3906 546.336 21.5469 546.805C21.7031 547.273 21.7812 547.797 21.7812 548.375C21.7812 548.922 21.7057 549.424 21.5547 549.883C21.4089 550.341 21.1875 550.742 20.8906 551.086C20.5938 551.424 20.2188 551.688 19.7656 551.875C19.3177 552.062 18.7891 552.156 18.1797 552.156C17.7214 552.156 17.2865 552.094 16.875 551.969C16.4688 551.839 16.1042 551.643 15.7812 551.383C15.4635 551.117 15.2031 550.789 15 550.398C14.8021 550.003 14.6771 549.539 14.625 549.008H16C16.0625 549.435 16.1875 549.794 16.375 550.086C16.5625 550.378 16.8073 550.599 17.1094 550.75C17.4167 550.896 17.7734 550.969 18.1797 550.969C18.5234 550.969 18.8281 550.909 19.0938 550.789C19.3594 550.669 19.5833 550.497 19.7656 550.273C19.9479 550.049 20.0859 549.779 20.1797 549.461C20.2786 549.143 20.3281 548.786 20.3281 548.391C20.3281 548.031 20.2786 547.698 20.1797 547.391C20.0807 547.083 19.9323 546.815 19.7344 546.586C19.5417 546.357 19.3047 546.18 19.0234 546.055C18.7422 545.924 18.4193 545.859 18.0547 545.859C17.5703 545.859 17.2031 545.924 16.9531 546.055C16.7083 546.185 16.4557 546.362 16.1953 546.586ZM30.5078 545.406V547.141C30.5078 548.073 30.4245 548.859 30.2578 549.5C30.0911 550.141 29.8516 550.656 29.5391 551.047C29.2266 551.438 28.849 551.721 28.4062 551.898C27.9688 552.07 27.474 552.156 26.9219 552.156C26.4844 552.156 26.0807 552.102 25.7109 551.992C25.3411 551.883 25.0078 551.708 24.7109 551.469C24.4193 551.224 24.1693 550.906 23.9609 550.516C23.7526 550.125 23.5938 549.651 23.4844 549.094C23.375 548.536 23.3203 547.885 23.3203 547.141V545.406C23.3203 544.474 23.4036 543.693 23.5703 543.062C23.7422 542.432 23.9844 541.927 24.2969 541.547C24.6094 541.161 24.9844 540.885 25.4219 540.719C25.8646 540.552 26.3594 540.469 26.9062 540.469C27.349 540.469 27.7552 540.523 28.125 540.633C28.5 540.737 28.8333 540.906 29.125 541.141C29.4167 541.37 29.6641 541.677 29.8672 542.062C30.0755 542.443 30.2344 542.909 30.3438 543.461C30.4531 544.013 30.5078 544.661 30.5078 545.406ZM29.0547 547.375V545.164C29.0547 544.654 29.0234 544.206 28.9609 543.82C28.9036 543.43 28.8177 543.096 28.7031 542.82C28.5885 542.544 28.4427 542.32 28.2656 542.148C28.0938 541.977 27.8932 541.852 27.6641 541.773C27.4401 541.69 27.1875 541.648 26.9062 541.648C26.5625 541.648 26.2578 541.714 25.9922 541.844C25.7266 541.969 25.5026 542.169 25.3203 542.445C25.1432 542.721 25.0078 543.083 24.9141 543.531C24.8203 543.979 24.7734 544.523 24.7734 545.164V547.375C24.7734 547.885 24.8021 548.336 24.8594 548.727C24.9219 549.117 25.013 549.456 25.1328 549.742C25.2526 550.023 25.3984 550.255 25.5703 550.438C25.7422 550.62 25.9401 550.755 26.1641 550.844C26.3932 550.927 26.6458 550.969 26.9219 550.969C27.276 550.969 27.5859 550.901 27.8516 550.766C28.1172 550.63 28.3385 550.419 28.5156 550.133C28.6979 549.841 28.8333 549.469 28.9219 549.016C29.0104 548.557 29.0547 548.01 29.0547 547.375Z" fill="white"/>
<path id="100" d="M10.6953 26.5625V38H9.25V28.3672L6.33594 29.4297V28.125L10.4688 26.5625H10.6953ZM22.0859 31.4062V33.1406C22.0859 34.0729 22.0026 34.8594 21.8359 35.5C21.6693 36.1406 21.4297 36.6562 21.1172 37.0469C20.8047 37.4375 20.4271 37.7214 19.9844 37.8984C19.5469 38.0703 19.0521 38.1562 18.5 38.1562C18.0625 38.1562 17.6589 38.1016 17.2891 37.9922C16.9193 37.8828 16.5859 37.7083 16.2891 37.4688C15.9974 37.224 15.7474 36.9062 15.5391 36.5156C15.3307 36.125 15.1719 35.651 15.0625 35.0938C14.9531 34.5365 14.8984 33.8854 14.8984 33.1406V31.4062C14.8984 30.474 14.9818 29.6927 15.1484 29.0625C15.3203 28.4323 15.5625 27.9271 15.875 27.5469C16.1875 27.1615 16.5625 26.8854 17 26.7188C17.4427 26.5521 17.9375 26.4688 18.4844 26.4688C18.9271 26.4688 19.3333 26.5234 19.7031 26.6328C20.0781 26.737 20.4115 26.9062 20.7031 27.1406C20.9948 27.3698 21.2422 27.6771 21.4453 28.0625C21.6536 28.4427 21.8125 28.9089 21.9219 29.4609C22.0312 30.013 22.0859 30.6615 22.0859 31.4062ZM20.6328 33.375V31.1641C20.6328 30.6536 20.6016 30.2057 20.5391 29.8203C20.4818 29.4297 20.3958 29.0964 20.2812 28.8203C20.1667 28.5443 20.0208 28.3203 19.8438 28.1484C19.6719 27.9766 19.4714 27.8516 19.2422 27.7734C19.0182 27.6901 18.7656 27.6484 18.4844 27.6484C18.1406 27.6484 17.8359 27.7135 17.5703 27.8438C17.3047 27.9688 17.0807 28.1693 16.8984 28.4453C16.7214 28.7214 16.5859 29.0833 16.4922 29.5312C16.3984 29.9792 16.3516 30.5234 16.3516 31.1641V33.375C16.3516 33.8854 16.3802 34.3359 16.4375 34.7266C16.5 35.1172 16.5911 35.4557 16.7109 35.7422C16.8307 36.0234 16.9766 36.2552 17.1484 36.4375C17.3203 36.6198 17.5182 36.7552 17.7422 36.8438C17.9714 36.9271 18.224 36.9688 18.5 36.9688C18.8542 36.9688 19.1641 36.901 19.4297 36.7656C19.6953 36.6302 19.9167 36.4193 20.0938 36.1328C20.276 35.8411 20.4115 35.4688 20.5 35.0156C20.5885 34.5573 20.6328 34.0104 20.6328 33.375ZM31.0859 31.4062V33.1406C31.0859 34.0729 31.0026 34.8594 30.8359 35.5C30.6693 36.1406 30.4297 36.6562 30.1172 37.0469C29.8047 37.4375 29.4271 37.7214 28.9844 37.8984C28.5469 38.0703 28.0521 38.1562 27.5 38.1562C27.0625 38.1562 26.6589 38.1016 26.2891 37.9922C25.9193 37.8828 25.5859 37.7083 25.2891 37.4688C24.9974 37.224 24.7474 36.9062 24.5391 36.5156C24.3307 36.125 24.1719 35.651 24.0625 35.0938C23.9531 34.5365 23.8984 33.8854 23.8984 33.1406V31.4062C23.8984 30.474 23.9818 29.6927 24.1484 29.0625C24.3203 28.4323 24.5625 27.9271 24.875 27.5469C25.1875 27.1615 25.5625 26.8854 26 26.7188C26.4427 26.5521 26.9375 26.4688 27.4844 26.4688C27.9271 26.4688 28.3333 26.5234 28.7031 26.6328C29.0781 26.737 29.4115 26.9062 29.7031 27.1406C29.9948 27.3698 30.2422 27.6771 30.4453 28.0625C30.6536 28.4427 30.8125 28.9089 30.9219 29.4609C31.0312 30.013 31.0859 30.6615 31.0859 31.4062ZM29.6328 33.375V31.1641C29.6328 30.6536 29.6016 30.2057 29.5391 29.8203C29.4818 29.4297 29.3958 29.0964 29.2812 28.8203C29.1667 28.5443 29.0208 28.3203 28.8438 28.1484C28.6719 27.9766 28.4714 27.8516 28.2422 27.7734C28.0182 27.6901 27.7656 27.6484 27.4844 27.6484C27.1406 27.6484 26.8359 27.7135 26.5703 27.8438C26.3047 27.9688 26.0807 28.1693 25.8984 28.4453C25.7214 28.7214 25.5859 29.0833 25.4922 29.5312C25.3984 29.9792 25.3516 30.5234 25.3516 31.1641V33.375C25.3516 33.8854 25.3802 34.3359 25.4375 34.7266C25.5 35.1172 25.5911 35.4557 25.7109 35.7422C25.8307 36.0234 25.9766 36.2552 26.1484 36.4375C26.3203 36.6198 26.5182 36.7552 26.7422 36.8438C26.9714 36.9271 27.224 36.9688 27.5 36.9688C27.8542 36.9688 28.1641 36.901 28.4297 36.7656C28.6953 36.6302 28.9167 36.4193 29.0938 36.1328C29.276 35.8411 29.4115 35.4688 29.5 35.0156C29.5885 34.5573 29.6328 34.0104 29.6328 33.375Z" fill="white"/>
</g>
</g>
<defs>
<filter id="filter0_d_106_302" x="18.7" y="0.700184" width="76.6" height="762.6" filterUnits="userSpaceOnUse" color-interpolation-filters="sRGB">
<feFlood flood-opacity="0" result="BackgroundImageFix"/>
<feColorMatrix in="SourceAlpha" type="matrix" values="0 0 0 0 0 0 0 0 0 0 0 0 0 0 0 0 0 0 127 0" result="hardAlpha"/>
<feOffset/>
<feGaussianBlur stdDeviation="18.65"/>
<feComposite in2="hardAlpha" operator="out"/>
<feColorMatrix type="matrix" values="0 0 0 0 1 0 0 0 0 1 0 0 0 0 1 0 0 0 0.5 0"/>
<feBlend mode="normal" in2="BackgroundImageFix" result="effect1_dropShadow_106_302"/>
<feBlend mode="normal" in="SourceGraphic" in2="effect1_dropShadow_106_302" result="shape"/>
</filter>
<filter id="filter1_d_106_302" x="18.7" y="688.7" width="950.6" height="76.6" filterUnits="userSpaceOnUse" color-interpolation-filters="sRGB">
<feFlood flood-opacity="0" result="BackgroundImageFix"/>
<feColorMatrix in="SourceAlpha" type="matrix" values="0 0 0 0 0 0 0 0 0 0 0 0 0 0 0 0 0 0 127 0" result="hardAlpha"/>
<feOffset/>
<feGaussianBlur stdDeviation="18.65"/>
<feComposite in2="hardAlpha" operator="out"/>
<feColorMatrix type="matrix" values="0 0 0 0 1 0 0 0 0 1 0 0 0 0 1 0 0 0 0.5 0"/>
<feBlend mode="normal" in2="BackgroundImageFix" result="effect1_dropShadow_106_302"/>
<feBlend mode="normal" in="SourceGraphic" in2="effect1_dropShadow_106_302" result="shape"/>
</filter>
<linearGradient id="paint0_linear_106_302" x1="114" y1="38" x2="114" y2="726" gradientUnits="userSpaceOnUse">
<stop stop-color="#19002F"/>
<stop offset="1" stop-color="#0C2472"/>
</linearGradient>
</defs>
</svg>
