<svg width="965" height="766" viewBox="0 0 965 766" fill="none" xmlns="http://www.w3.org/2000/svg">
<g id="grapheabrre">
<g id="Line 9" filter="url(#filter0_d_133_37)">
<line x1="52" y1="38.0002" x2="52" y2="726" stroke="#B9F2FF" stroke-width="2"/>
</g>
<g id="Line 10" filter="url(#filter1_d_133_37)">
<line x1="927" y1="727" x2="51" y2="727" stroke="#B9F2FF" stroke-width="2"/>
</g>
<g id="pays">
<path id="France" d="M206.169 752.224H212.089V753.248H206.169V752.224ZM206.297 758H205.113V746.8H212.793V747.824H206.297V758ZM214.842 758V749.6H215.93V751.888L215.818 751.488C216.052 750.848 216.447 750.363 217.002 750.032C217.556 749.691 218.244 749.52 219.066 749.52V750.624C219.023 750.624 218.98 750.624 218.938 750.624C218.895 750.613 218.852 750.608 218.81 750.608C217.924 750.608 217.231 750.88 216.73 751.424C216.228 751.957 215.978 752.72 215.978 753.712V758H214.842ZM225.778 758V756.144L225.73 755.84V752.736C225.73 752.021 225.527 751.472 225.122 751.088C224.727 750.704 224.135 750.512 223.346 750.512C222.802 750.512 222.284 750.603 221.794 750.784C221.303 750.965 220.887 751.205 220.546 751.504L220.034 750.656C220.46 750.293 220.972 750.016 221.57 749.824C222.167 749.621 222.796 749.52 223.458 749.52C224.546 749.52 225.383 749.792 225.97 750.336C226.567 750.869 226.866 751.685 226.866 752.784V758H225.778ZM222.882 758.08C222.252 758.08 221.703 757.979 221.234 757.776C220.775 757.563 220.423 757.275 220.178 756.912C219.932 756.539 219.81 756.112 219.81 755.632C219.81 755.195 219.911 754.8 220.114 754.448C220.327 754.085 220.668 753.797 221.138 753.584C221.618 753.36 222.258 753.248 223.058 753.248H225.954V754.096H223.09C222.279 754.096 221.714 754.24 221.394 754.528C221.084 754.816 220.93 755.173 220.93 755.6C220.93 756.08 221.116 756.464 221.49 756.752C221.863 757.04 222.386 757.184 223.058 757.184C223.698 757.184 224.247 757.04 224.706 756.752C225.175 756.453 225.516 756.027 225.73 755.472L225.986 756.256C225.772 756.811 225.399 757.253 224.866 757.584C224.343 757.915 223.682 758.08 222.882 758.08ZM234.239 749.52C234.922 749.52 235.519 749.653 236.031 749.92C236.554 750.176 236.959 750.571 237.247 751.104C237.546 751.637 237.695 752.309 237.695 753.12V758H236.559V753.232C236.559 752.347 236.335 751.68 235.887 751.232C235.45 750.773 234.831 750.544 234.031 750.544C233.434 750.544 232.911 750.667 232.463 750.912C232.026 751.147 231.685 751.493 231.439 751.952C231.205 752.4 231.087 752.944 231.087 753.584V758H229.951V749.6H231.039V751.904L230.863 751.472C231.13 750.864 231.557 750.389 232.143 750.048C232.73 749.696 233.429 749.52 234.239 749.52ZM244.252 758.08C243.42 758.08 242.673 757.899 242.012 757.536C241.361 757.163 240.849 756.656 240.476 756.016C240.102 755.365 239.916 754.624 239.916 753.792C239.916 752.949 240.102 752.208 240.476 751.568C240.849 750.928 241.361 750.427 242.012 750.064C242.673 749.701 243.42 749.52 244.252 749.52C244.966 749.52 245.612 749.659 246.188 749.936C246.764 750.213 247.217 750.629 247.548 751.184L246.7 751.76C246.412 751.333 246.054 751.019 245.628 750.816C245.201 750.613 244.737 750.512 244.236 750.512C243.638 750.512 243.1 750.651 242.62 750.928C242.14 751.195 241.761 751.573 241.484 752.064C241.206 752.555 241.068 753.131 241.068 753.792C241.068 754.453 241.206 755.029 241.484 755.52C241.761 756.011 242.14 756.395 242.62 756.672C243.1 756.939 243.638 757.072 244.236 757.072C244.737 757.072 245.201 756.971 245.628 756.768C246.054 756.565 246.412 756.256 246.7 755.84L247.548 756.416C247.217 756.96 246.764 757.376 246.188 757.664C245.612 757.941 244.966 758.08 244.252 758.08ZM253.207 758.08C252.332 758.08 251.564 757.899 250.903 757.536C250.241 757.163 249.724 756.656 249.351 756.016C248.977 755.365 248.791 754.624 248.791 753.792C248.791 752.96 248.967 752.224 249.319 751.584C249.681 750.944 250.172 750.443 250.791 750.08C251.42 749.707 252.124 749.52 252.903 749.52C253.692 749.52 254.391 749.701 254.999 750.064C255.617 750.416 256.103 750.917 256.455 751.568C256.807 752.208 256.983 752.949 256.983 753.792C256.983 753.845 256.977 753.904 256.967 753.968C256.967 754.021 256.967 754.08 256.967 754.144H249.655V753.296H256.359L255.911 753.632C255.911 753.024 255.777 752.485 255.511 752.016C255.255 751.536 254.903 751.163 254.455 750.896C254.007 750.629 253.489 750.496 252.903 750.496C252.327 750.496 251.809 750.629 251.351 750.896C250.892 751.163 250.535 751.536 250.279 752.016C250.023 752.496 249.895 753.045 249.895 753.664V753.84C249.895 754.48 250.033 755.045 250.311 755.536C250.599 756.016 250.993 756.395 251.495 756.672C252.007 756.939 252.588 757.072 253.239 757.072C253.751 757.072 254.225 756.981 254.663 756.8C255.111 756.619 255.495 756.341 255.815 755.968L256.455 756.704C256.081 757.152 255.612 757.493 255.047 757.728C254.492 757.963 253.879 758.08 253.207 758.08Z" fill="white"/>
<path id="Rep. cheque" d="M58.824 758V746.8H63.016C63.9653 746.8 64.7813 746.955 65.464 747.264C66.1467 747.563 66.6693 748 67.032 748.576C67.4053 749.141 67.592 749.829 67.592 750.64C67.592 751.429 67.4053 752.112 67.032 752.688C66.6693 753.253 66.1467 753.691 65.464 754C64.7813 754.299 63.9653 754.448 63.016 754.448H59.48L60.008 753.904V758H58.824ZM66.472 758L63.592 753.936H64.872L67.768 758H66.472ZM60.008 754L59.48 753.44H62.984C64.104 753.44 64.952 753.195 65.528 752.704C66.1147 752.213 66.408 751.525 66.408 750.64C66.408 749.744 66.1147 749.051 65.528 748.56C64.952 748.069 64.104 747.824 62.984 747.824H59.48L60.008 747.264V754ZM73.7145 758.08C72.8398 758.08 72.0718 757.899 71.4105 757.536C70.7492 757.163 70.2318 756.656 69.8585 756.016C69.4852 755.365 69.2985 754.624 69.2985 753.792C69.2985 752.96 69.4745 752.224 69.8265 751.584C70.1892 750.944 70.6798 750.443 71.2985 750.08C71.9278 749.707 72.6318 749.52 73.4105 749.52C74.1998 749.52 74.8985 749.701 75.5065 750.064C76.1252 750.416 76.6105 750.917 76.9625 751.568C77.3145 752.208 77.4905 752.949 77.4905 753.792C77.4905 753.845 77.4852 753.904 77.4745 753.968C77.4745 754.021 77.4745 754.08 77.4745 754.144H70.1625V753.296H76.8665L76.4185 753.632C76.4185 753.024 76.2852 752.485 76.0185 752.016C75.7625 751.536 75.4105 751.163 74.9625 750.896C74.5145 750.629 73.9972 750.496 73.4105 750.496C72.8345 750.496 72.3172 750.629 71.8585 750.896C71.3998 751.163 71.0425 751.536 70.7865 752.016C70.5305 752.496 70.4025 753.045 70.4025 753.664V753.84C70.4025 754.48 70.5412 755.045 70.8185 755.536C71.1065 756.016 71.5012 756.395 72.0025 756.672C72.5145 756.939 73.0958 757.072 73.7465 757.072C74.2585 757.072 74.7332 756.981 75.1705 756.8C75.6185 756.619 76.0025 756.341 76.3225 755.968L76.9625 756.704C76.5892 757.152 76.1198 757.493 75.5545 757.728C74.9998 757.963 74.3865 758.08 73.7145 758.08ZM84.1388 758.08C83.4134 758.08 82.7574 757.915 82.1708 757.584C81.5841 757.243 81.1148 756.757 80.7628 756.128C80.4214 755.488 80.2508 754.709 80.2508 753.792C80.2508 752.875 80.4214 752.101 80.7628 751.472C81.1041 750.832 81.5681 750.347 82.1548 750.016C82.7414 749.685 83.4028 749.52 84.1388 749.52C84.9388 749.52 85.6534 749.701 86.2828 750.064C86.9228 750.416 87.4241 750.917 87.7868 751.568C88.1494 752.208 88.3308 752.949 88.3308 753.792C88.3308 754.645 88.1494 755.392 87.7868 756.032C87.4241 756.672 86.9228 757.173 86.2828 757.536C85.6534 757.899 84.9388 758.08 84.1388 758.08ZM79.8028 761.104V749.6H80.8908V752.128L80.7788 753.808L80.9388 755.504V761.104H79.8028ZM84.0588 757.072C84.6561 757.072 85.1894 756.939 85.6588 756.672C86.1281 756.395 86.5014 756.011 86.7788 755.52C87.0561 755.019 87.1948 754.443 87.1948 753.792C87.1948 753.141 87.0561 752.571 86.7788 752.08C86.5014 751.589 86.1281 751.205 85.6588 750.928C85.1894 750.651 84.6561 750.512 84.0588 750.512C83.4614 750.512 82.9228 750.651 82.4427 750.928C81.9734 751.205 81.6001 751.589 81.3228 752.08C81.0561 752.571 80.9228 753.141 80.9228 753.792C80.9228 754.443 81.0561 755.019 81.3228 755.52C81.6001 756.011 81.9734 756.395 82.4427 756.672C82.9228 756.939 83.4614 757.072 84.0588 757.072ZM90.5241 758.08C90.2895 758.08 90.0868 757.995 89.9161 757.824C89.7561 757.653 89.6761 757.445 89.6761 757.2C89.6761 756.944 89.7561 756.736 89.9161 756.576C90.0868 756.416 90.2895 756.336 90.5241 756.336C90.7588 756.336 90.9561 756.416 91.1161 756.576C91.2868 756.736 91.3721 756.944 91.3721 757.2C91.3721 757.445 91.2868 757.653 91.1161 757.824C90.9561 757.995 90.7588 758.08 90.5241 758.08ZM101.478 758.08C100.646 758.08 99.8996 757.899 99.2383 757.536C98.5876 757.163 98.0756 756.656 97.7023 756.016C97.3289 755.365 97.1423 754.624 97.1423 753.792C97.1423 752.949 97.3289 752.208 97.7023 751.568C98.0756 750.928 98.5876 750.427 99.2383 750.064C99.8996 749.701 100.646 749.52 101.478 749.52C102.193 749.52 102.838 749.659 103.414 749.936C103.99 750.213 104.444 750.629 104.774 751.184L103.926 751.76C103.638 751.333 103.281 751.019 102.854 750.816C102.428 750.613 101.964 750.512 101.462 750.512C100.865 750.512 100.326 750.651 99.8463 750.928C99.3663 751.195 98.9876 751.573 98.7103 752.064C98.4329 752.555 98.2943 753.131 98.2943 753.792C98.2943 754.453 98.4329 755.029 98.7103 755.52C98.9876 756.011 99.3663 756.395 99.8463 756.672C100.326 756.939 100.865 757.072 101.462 757.072C101.964 757.072 102.428 756.971 102.854 756.768C103.281 756.565 103.638 756.256 103.926 755.84L104.774 756.416C104.444 756.96 103.99 757.376 103.414 757.664C102.838 757.941 102.193 758.08 101.478 758.08ZM111.169 749.52C111.852 749.52 112.449 749.653 112.961 749.92C113.484 750.176 113.889 750.571 114.177 751.104C114.476 751.637 114.625 752.309 114.625 753.12V758H113.489V753.232C113.489 752.347 113.265 751.68 112.817 751.232C112.38 750.773 111.761 750.544 110.961 750.544C110.364 750.544 109.841 750.667 109.393 750.912C108.956 751.147 108.614 751.493 108.369 751.952C108.134 752.4 108.017 752.944 108.017 753.584V758H106.881V746.128H108.017V751.904L107.793 751.472C108.06 750.864 108.486 750.389 109.073 750.048C109.66 749.696 110.358 749.52 111.169 749.52ZM121.261 758.08C120.387 758.08 119.619 757.899 118.957 757.536C118.296 757.163 117.779 756.656 117.405 756.016C117.032 755.365 116.845 754.624 116.845 753.792C116.845 752.96 117.021 752.224 117.373 751.584C117.736 750.944 118.227 750.443 118.845 750.08C119.475 749.707 120.179 749.52 120.957 749.52C121.747 749.52 122.445 749.701 123.053 750.064C123.672 750.416 124.157 750.917 124.509 751.568C124.861 752.208 125.037 752.949 125.037 753.792C125.037 753.845 125.032 753.904 125.021 753.968C125.021 754.021 125.021 754.08 125.021 754.144H117.709V753.296H124.413L123.965 753.632C123.965 753.024 123.832 752.485 123.565 752.016C123.309 751.536 122.957 751.163 122.509 750.896C122.061 750.629 121.544 750.496 120.957 750.496C120.381 750.496 119.864 750.629 119.405 750.896C118.947 751.163 118.589 751.536 118.333 752.016C118.077 752.496 117.949 753.045 117.949 753.664V753.84C117.949 754.48 118.088 755.045 118.365 755.536C118.653 756.016 119.048 756.395 119.549 756.672C120.061 756.939 120.643 757.072 121.293 757.072C121.805 757.072 122.28 756.981 122.717 756.8C123.165 756.619 123.549 756.341 123.869 755.968L124.509 756.704C124.136 757.152 123.667 757.493 123.101 757.728C122.547 757.963 121.933 758.08 121.261 758.08ZM130.694 758.08C129.894 758.08 129.174 757.899 128.534 757.536C127.904 757.173 127.408 756.672 127.046 756.032C126.683 755.392 126.502 754.645 126.502 753.792C126.502 752.949 126.683 752.208 127.046 751.568C127.408 750.917 127.904 750.416 128.534 750.064C129.174 749.701 129.894 749.52 130.694 749.52C131.44 749.52 132.102 749.685 132.678 750.016C133.264 750.347 133.728 750.832 134.07 751.472C134.411 752.101 134.582 752.875 134.582 753.792C134.582 754.709 134.406 755.488 134.054 756.128C133.712 756.757 133.248 757.243 132.662 757.584C132.086 757.915 131.43 758.08 130.694 758.08ZM130.774 757.072C131.371 757.072 131.904 756.939 132.374 756.672C132.854 756.395 133.227 756.011 133.494 755.52C133.771 755.019 133.91 754.443 133.91 753.792C133.91 753.141 133.771 752.571 133.494 752.08C133.227 751.589 132.854 751.205 132.374 750.928C131.904 750.651 131.371 750.512 130.774 750.512C130.187 750.512 129.659 750.651 129.19 750.928C128.72 751.205 128.347 751.589 128.07 752.08C127.792 752.571 127.654 753.141 127.654 753.792C127.654 754.443 127.792 755.019 128.07 755.52C128.347 756.011 128.72 756.395 129.19 756.672C129.659 756.939 130.187 757.072 130.774 757.072ZM133.894 761.104V755.504L134.054 753.808L133.942 752.128V749.6H135.03V761.104H133.894ZM141.665 758.08C140.951 758.08 140.327 757.947 139.793 757.68C139.26 757.413 138.844 757.013 138.545 756.48C138.257 755.947 138.113 755.28 138.113 754.48V749.6H139.249V754.352C139.249 755.248 139.468 755.925 139.905 756.384C140.353 756.832 140.977 757.056 141.777 757.056C142.364 757.056 142.871 756.939 143.297 756.704C143.735 756.459 144.065 756.107 144.289 755.648C144.524 755.189 144.641 754.64 144.641 754V749.6H145.777V758H144.689V755.696L144.865 756.112C144.599 756.731 144.183 757.216 143.617 757.568C143.063 757.909 142.412 758.08 141.665 758.08ZM152.511 758.08C151.637 758.08 150.869 757.899 150.207 757.536C149.546 757.163 149.029 756.656 148.655 756.016C148.282 755.365 148.095 754.624 148.095 753.792C148.095 752.96 148.271 752.224 148.623 751.584C148.986 750.944 149.477 750.443 150.095 750.08C150.725 749.707 151.429 749.52 152.207 749.52C152.997 749.52 153.695 749.701 154.303 750.064C154.922 750.416 155.407 750.917 155.759 751.568C156.111 752.208 156.287 752.949 156.287 753.792C156.287 753.845 156.282 753.904 156.271 753.968C156.271 754.021 156.271 754.08 156.271 754.144H148.959V753.296H155.663L155.215 753.632C155.215 753.024 155.082 752.485 154.815 752.016C154.559 751.536 154.207 751.163 153.759 750.896C153.311 750.629 152.794 750.496 152.207 750.496C151.631 750.496 151.114 750.629 150.655 750.896C150.197 751.163 149.839 751.536 149.583 752.016C149.327 752.496 149.199 753.045 149.199 753.664V753.84C149.199 754.48 149.338 755.045 149.615 755.536C149.903 756.016 150.298 756.395 150.799 756.672C151.311 756.939 151.893 757.072 152.543 757.072C153.055 757.072 153.53 756.981 153.967 756.8C154.415 756.619 154.799 756.341 155.119 755.968L155.759 756.704C155.386 757.152 154.917 757.493 154.351 757.728C153.797 757.963 153.183 758.08 152.511 758.08Z" fill="white"/>
<path id="Allemagne" d="M315.032 758L320.152 746.8H321.32L326.44 758H325.192L320.488 747.488H320.968L316.264 758H315.032ZM317.048 755.008L317.4 754.048H323.912L324.264 755.008H317.048ZM328.053 758V746.128H329.189V758H328.053ZM332.35 758V746.128H333.486V758H332.35ZM340.215 758.08C339.34 758.08 338.572 757.899 337.911 757.536C337.249 757.163 336.732 756.656 336.359 756.016C335.985 755.365 335.799 754.624 335.799 753.792C335.799 752.96 335.975 752.224 336.327 751.584C336.689 750.944 337.18 750.443 337.799 750.08C338.428 749.707 339.132 749.52 339.911 749.52C340.7 749.52 341.399 749.701 342.007 750.064C342.625 750.416 343.111 750.917 343.463 751.568C343.815 752.208 343.991 752.949 343.991 753.792C343.991 753.845 343.985 753.904 343.975 753.968C343.975 754.021 343.975 754.08 343.975 754.144H336.663V753.296H343.367L342.919 753.632C342.919 753.024 342.785 752.485 342.519 752.016C342.263 751.536 341.911 751.163 341.463 750.896C341.015 750.629 340.497 750.496 339.911 750.496C339.335 750.496 338.817 750.629 338.359 750.896C337.9 751.163 337.543 751.536 337.287 752.016C337.031 752.496 336.903 753.045 336.903 753.664V753.84C336.903 754.48 337.041 755.045 337.319 755.536C337.607 756.016 338.001 756.395 338.503 756.672C339.015 756.939 339.596 757.072 340.247 757.072C340.759 757.072 341.233 756.981 341.671 756.8C342.119 756.619 342.503 756.341 342.823 755.968L343.463 756.704C343.089 757.152 342.62 757.493 342.055 757.728C341.5 757.963 340.887 758.08 340.215 758.08ZM356.799 749.52C357.481 749.52 358.073 749.653 358.575 749.92C359.087 750.176 359.481 750.571 359.759 751.104C360.047 751.637 360.191 752.309 360.191 753.12V758H359.055V753.232C359.055 752.347 358.841 751.68 358.415 751.232C357.999 750.773 357.407 750.544 356.639 750.544C356.063 750.544 355.561 750.667 355.135 750.912C354.719 751.147 354.393 751.493 354.159 751.952C353.935 752.4 353.823 752.944 353.823 753.584V758H352.687V753.232C352.687 752.347 352.473 751.68 352.047 751.232C351.62 750.773 351.023 750.544 350.255 750.544C349.689 750.544 349.193 750.667 348.767 750.912C348.34 751.147 348.009 751.493 347.775 751.952C347.551 752.4 347.439 752.944 347.439 753.584V758H346.303V749.6H347.391V751.872L347.215 751.472C347.471 750.864 347.881 750.389 348.447 750.048C349.023 749.696 349.7 749.52 350.479 749.52C351.3 749.52 351.999 749.728 352.575 750.144C353.151 750.549 353.524 751.163 353.695 751.984L353.247 751.808C353.492 751.125 353.924 750.576 354.543 750.16C355.172 749.733 355.924 749.52 356.799 749.52ZM368.536 758V756.144L368.488 755.84V752.736C368.488 752.021 368.285 751.472 367.88 751.088C367.485 750.704 366.893 750.512 366.104 750.512C365.56 750.512 365.042 750.603 364.552 750.784C364.061 750.965 363.645 751.205 363.304 751.504L362.792 750.656C363.218 750.293 363.73 750.016 364.328 749.824C364.925 749.621 365.554 749.52 366.216 749.52C367.304 749.52 368.141 749.792 368.728 750.336C369.325 750.869 369.624 751.685 369.624 752.784V758H368.536ZM365.64 758.08C365.01 758.08 364.461 757.979 363.992 757.776C363.533 757.563 363.181 757.275 362.936 756.912C362.69 756.539 362.568 756.112 362.568 755.632C362.568 755.195 362.669 754.8 362.872 754.448C363.085 754.085 363.426 753.797 363.896 753.584C364.376 753.36 365.016 753.248 365.816 753.248H368.712V754.096H365.848C365.037 754.096 364.472 754.24 364.152 754.528C363.842 754.816 363.688 755.173 363.688 755.6C363.688 756.08 363.874 756.464 364.248 756.752C364.621 757.04 365.144 757.184 365.816 757.184C366.456 757.184 367.005 757.04 367.464 756.752C367.933 756.453 368.274 756.027 368.488 755.472L368.744 756.256C368.53 756.811 368.157 757.253 367.624 757.584C367.101 757.915 366.44 758.08 365.64 758.08ZM376.293 761.184C375.525 761.184 374.789 761.072 374.085 760.848C373.381 760.624 372.81 760.304 372.373 759.888L372.949 759.024C373.344 759.376 373.829 759.653 374.405 759.856C374.992 760.069 375.61 760.176 376.261 760.176C377.328 760.176 378.112 759.925 378.613 759.424C379.114 758.933 379.365 758.165 379.365 757.12V755.024L379.525 753.584L379.413 752.144V749.6H380.501V756.976C380.501 758.427 380.144 759.488 379.429 760.16C378.725 760.843 377.68 761.184 376.293 761.184ZM376.085 757.68C375.285 757.68 374.565 757.509 373.925 757.168C373.285 756.816 372.778 756.331 372.405 755.712C372.042 755.093 371.861 754.384 371.861 753.584C371.861 752.784 372.042 752.08 372.405 751.472C372.778 750.853 373.285 750.373 373.925 750.032C374.565 749.691 375.285 749.52 376.085 749.52C376.832 749.52 377.504 749.675 378.101 749.984C378.698 750.293 379.173 750.752 379.525 751.36C379.877 751.968 380.053 752.709 380.053 753.584C380.053 754.459 379.877 755.2 379.525 755.808C379.173 756.416 378.698 756.88 378.101 757.2C377.504 757.52 376.832 757.68 376.085 757.68ZM376.197 756.672C376.816 756.672 377.365 756.544 377.845 756.288C378.325 756.021 378.704 755.659 378.981 755.2C379.258 754.731 379.397 754.192 379.397 753.584C379.397 752.976 379.258 752.443 378.981 751.984C378.704 751.525 378.325 751.168 377.845 750.912C377.365 750.645 376.816 750.512 376.197 750.512C375.589 750.512 375.04 750.645 374.549 750.912C374.069 751.168 373.69 751.525 373.413 751.984C373.146 752.443 373.013 752.976 373.013 753.584C373.013 754.192 373.146 754.731 373.413 755.2C373.69 755.659 374.069 756.021 374.549 756.288C375.04 756.544 375.589 756.672 376.197 756.672ZM387.95 749.52C388.633 749.52 389.23 749.653 389.742 749.92C390.265 750.176 390.67 750.571 390.958 751.104C391.257 751.637 391.406 752.309 391.406 753.12V758H390.27V753.232C390.27 752.347 390.046 751.68 389.598 751.232C389.161 750.773 388.542 750.544 387.742 750.544C387.145 750.544 386.622 750.667 386.174 750.912C385.737 751.147 385.395 751.493 385.15 751.952C384.915 752.4 384.798 752.944 384.798 753.584V758H383.662V749.6H384.75V751.904L384.574 751.472C384.841 750.864 385.267 750.389 385.854 750.048C386.441 749.696 387.139 749.52 387.95 749.52ZM398.043 758.08C397.168 758.08 396.4 757.899 395.739 757.536C395.077 757.163 394.56 756.656 394.187 756.016C393.813 755.365 393.627 754.624 393.627 753.792C393.627 752.96 393.803 752.224 394.155 751.584C394.517 750.944 395.008 750.443 395.627 750.08C396.256 749.707 396.96 749.52 397.739 749.52C398.528 749.52 399.227 749.701 399.835 750.064C400.453 750.416 400.939 750.917 401.291 751.568C401.643 752.208 401.819 752.949 401.819 753.792C401.819 753.845 401.813 753.904 401.803 753.968C401.803 754.021 401.803 754.08 401.803 754.144H394.491V753.296H401.195L400.747 753.632C400.747 753.024 400.613 752.485 400.347 752.016C400.091 751.536 399.739 751.163 399.291 750.896C398.843 750.629 398.325 750.496 397.739 750.496C397.163 750.496 396.645 750.629 396.187 750.896C395.728 751.163 395.371 751.536 395.115 752.016C394.859 752.496 394.731 753.045 394.731 753.664V753.84C394.731 754.48 394.869 755.045 395.147 755.536C395.435 756.016 395.829 756.395 396.331 756.672C396.843 756.939 397.424 757.072 398.075 757.072C398.587 757.072 399.061 756.981 399.499 756.8C399.947 756.619 400.331 756.341 400.651 755.968L401.291 756.704C400.917 757.152 400.448 757.493 399.883 757.728C399.328 757.963 398.715 758.08 398.043 758.08Z" fill="white"/>
<path id="Japon" d="M467.024 758.096C466.395 758.096 465.803 757.957 465.248 757.68C464.704 757.403 464.267 757.008 463.936 756.496L464.624 755.696C464.933 756.144 465.291 756.485 465.696 756.72C466.101 756.955 466.549 757.072 467.04 757.072C468.427 757.072 469.12 756.251 469.12 754.608V747.824H465.024V746.8H470.288V754.56C470.288 755.744 470.011 756.629 469.456 757.216C468.912 757.803 468.101 758.096 467.024 758.096ZM478.864 758V756.144L478.816 755.84V752.736C478.816 752.021 478.613 751.472 478.208 751.088C477.813 750.704 477.221 750.512 476.432 750.512C475.888 750.512 475.37 750.603 474.88 750.784C474.389 750.965 473.973 751.205 473.632 751.504L473.12 750.656C473.546 750.293 474.058 750.016 474.656 749.824C475.253 749.621 475.882 749.52 476.544 749.52C477.632 749.52 478.469 749.792 479.056 750.336C479.653 750.869 479.952 751.685 479.952 752.784V758H478.864ZM475.968 758.08C475.338 758.08 474.789 757.979 474.32 757.776C473.861 757.563 473.509 757.275 473.264 756.912C473.018 756.539 472.896 756.112 472.896 755.632C472.896 755.195 472.997 754.8 473.2 754.448C473.413 754.085 473.754 753.797 474.224 753.584C474.704 753.36 475.344 753.248 476.144 753.248H479.04V754.096H476.176C475.365 754.096 474.8 754.24 474.48 754.528C474.17 754.816 474.016 755.173 474.016 755.6C474.016 756.08 474.202 756.464 474.576 756.752C474.949 757.04 475.472 757.184 476.144 757.184C476.784 757.184 477.333 757.04 477.792 756.752C478.261 756.453 478.602 756.027 478.816 755.472L479.072 756.256C478.858 756.811 478.485 757.253 477.952 757.584C477.429 757.915 476.768 758.08 475.968 758.08ZM487.373 758.08C486.648 758.08 485.992 757.915 485.405 757.584C484.818 757.243 484.349 756.757 483.997 756.128C483.656 755.488 483.485 754.709 483.485 753.792C483.485 752.875 483.656 752.101 483.997 751.472C484.338 750.832 484.802 750.347 485.389 750.016C485.976 749.685 486.637 749.52 487.373 749.52C488.173 749.52 488.888 749.701 489.517 750.064C490.157 750.416 490.658 750.917 491.021 751.568C491.384 752.208 491.565 752.949 491.565 753.792C491.565 754.645 491.384 755.392 491.021 756.032C490.658 756.672 490.157 757.173 489.517 757.536C488.888 757.899 488.173 758.08 487.373 758.08ZM483.037 761.104V749.6H484.125V752.128L484.013 753.808L484.173 755.504V761.104H483.037ZM487.293 757.072C487.89 757.072 488.424 756.939 488.893 756.672C489.362 756.395 489.736 756.011 490.013 755.52C490.29 755.019 490.429 754.443 490.429 753.792C490.429 753.141 490.29 752.571 490.013 752.08C489.736 751.589 489.362 751.205 488.893 750.928C488.424 750.651 487.89 750.512 487.293 750.512C486.696 750.512 486.157 750.651 485.677 750.928C485.208 751.205 484.834 751.589 484.557 752.08C484.29 752.571 484.157 753.141 484.157 753.792C484.157 754.443 484.29 755.019 484.557 755.52C484.834 756.011 485.208 756.395 485.677 756.672C486.157 756.939 486.696 757.072 487.293 757.072ZM497.305 758.08C496.494 758.08 495.764 757.899 495.113 757.536C494.473 757.163 493.966 756.656 493.593 756.016C493.22 755.365 493.033 754.624 493.033 753.792C493.033 752.949 493.22 752.208 493.593 751.568C493.966 750.928 494.473 750.427 495.113 750.064C495.753 749.701 496.484 749.52 497.305 749.52C498.137 749.52 498.873 749.701 499.513 750.064C500.164 750.427 500.67 750.928 501.033 751.568C501.406 752.208 501.593 752.949 501.593 753.792C501.593 754.624 501.406 755.365 501.033 756.016C500.67 756.656 500.164 757.163 499.513 757.536C498.862 757.899 498.126 758.08 497.305 758.08ZM497.305 757.072C497.913 757.072 498.452 756.939 498.921 756.672C499.39 756.395 499.758 756.011 500.025 755.52C500.302 755.019 500.441 754.443 500.441 753.792C500.441 753.131 500.302 752.555 500.025 752.064C499.758 751.573 499.39 751.195 498.921 750.928C498.452 750.651 497.918 750.512 497.321 750.512C496.724 750.512 496.19 750.651 495.721 750.928C495.252 751.195 494.878 751.573 494.601 752.064C494.324 752.555 494.185 753.131 494.185 753.792C494.185 754.443 494.324 755.019 494.601 755.52C494.878 756.011 495.252 756.395 495.721 756.672C496.19 756.939 496.718 757.072 497.305 757.072ZM508.2 749.52C508.883 749.52 509.48 749.653 509.992 749.92C510.515 750.176 510.92 750.571 511.208 751.104C511.507 751.637 511.656 752.309 511.656 753.12V758H510.52V753.232C510.52 752.347 510.296 751.68 509.848 751.232C509.411 750.773 508.792 750.544 507.992 750.544C507.395 750.544 506.872 750.667 506.424 750.912C505.987 751.147 505.645 751.493 505.4 751.952C505.165 752.4 505.048 752.944 505.048 753.584V758H503.912V749.6H505V751.904L504.824 751.472C505.091 750.864 505.517 750.389 506.104 750.048C506.691 749.696 507.389 749.52 508.2 749.52Z" fill="white"/>
<path id="Su&#195;&#168;de" d="M597.912 758.096C597.08 758.096 596.28 757.963 595.512 757.696C594.755 757.419 594.168 757.067 593.752 756.64L594.216 755.728C594.611 756.112 595.139 756.437 595.8 756.704C596.472 756.96 597.176 757.088 597.912 757.088C598.616 757.088 599.187 757.003 599.624 756.832C600.072 756.651 600.397 756.411 600.6 756.112C600.813 755.813 600.92 755.483 600.92 755.12C600.92 754.683 600.792 754.331 600.536 754.064C600.291 753.797 599.965 753.589 599.56 753.44C599.155 753.28 598.707 753.141 598.216 753.024C597.725 752.907 597.235 752.784 596.744 752.656C596.253 752.517 595.8 752.336 595.384 752.112C594.979 751.888 594.648 751.595 594.392 751.232C594.147 750.859 594.024 750.373 594.024 749.776C594.024 749.221 594.168 748.715 594.456 748.256C594.755 747.787 595.208 747.413 595.816 747.136C596.424 746.848 597.203 746.704 598.152 746.704C598.781 746.704 599.405 746.795 600.024 746.976C600.643 747.147 601.176 747.387 601.624 747.696L601.224 748.64C600.744 748.32 600.232 748.085 599.688 747.936C599.155 747.787 598.637 747.712 598.136 747.712C597.464 747.712 596.909 747.803 596.472 747.984C596.035 748.165 595.709 748.411 595.496 748.72C595.293 749.019 595.192 749.36 595.192 749.744C595.192 750.181 595.315 750.533 595.56 750.8C595.816 751.067 596.147 751.275 596.552 751.424C596.968 751.573 597.421 751.707 597.912 751.824C598.403 751.941 598.888 752.069 599.368 752.208C599.859 752.347 600.307 752.528 600.712 752.752C601.128 752.965 601.459 753.253 601.704 753.616C601.96 753.979 602.088 754.453 602.088 755.04C602.088 755.584 601.939 756.091 601.64 756.56C601.341 757.019 600.883 757.392 600.264 757.68C599.656 757.957 598.872 758.096 597.912 758.096ZM607.9 758.08C607.185 758.08 606.561 757.947 606.028 757.68C605.494 757.413 605.078 757.013 604.78 756.48C604.492 755.947 604.348 755.28 604.348 754.48V749.6H605.484V754.352C605.484 755.248 605.702 755.925 606.14 756.384C606.588 756.832 607.212 757.056 608.012 757.056C608.598 757.056 609.105 756.939 609.532 756.704C609.969 756.459 610.3 756.107 610.524 755.648C610.758 755.189 610.876 754.64 610.876 754V749.6H612.012V758H610.924V755.696L611.1 756.112C610.833 756.731 610.417 757.216 609.852 757.568C609.297 757.909 608.646 758.08 607.9 758.08ZM618.746 758.08C617.871 758.08 617.103 757.899 616.442 757.536C615.78 757.163 615.263 756.656 614.89 756.016C614.516 755.365 614.33 754.624 614.33 753.792C614.33 752.96 614.506 752.224 614.858 751.584C615.22 750.944 615.711 750.443 616.33 750.08C616.959 749.707 617.663 749.52 618.442 749.52C619.231 749.52 619.93 749.701 620.538 750.064C621.156 750.416 621.642 750.917 621.994 751.568C622.346 752.208 622.522 752.949 622.522 753.792C622.522 753.845 622.516 753.904 622.506 753.968C622.506 754.021 622.506 754.08 622.506 754.144H615.194V753.296H621.898L621.45 753.632C621.45 753.024 621.316 752.485 621.05 752.016C620.794 751.536 620.442 751.163 619.994 750.896C619.546 750.629 619.028 750.496 618.442 750.496C617.866 750.496 617.348 750.629 616.89 750.896C616.431 751.163 616.074 751.536 615.818 752.016C615.562 752.496 615.434 753.045 615.434 753.664V753.84C615.434 754.48 615.572 755.045 615.85 755.536C616.138 756.016 616.532 756.395 617.034 756.672C617.546 756.939 618.127 757.072 618.778 757.072C619.29 757.072 619.764 756.981 620.202 756.8C620.65 756.619 621.034 756.341 621.354 755.968L621.994 756.704C621.62 757.152 621.151 757.493 620.586 757.728C620.031 757.963 619.418 758.08 618.746 758.08ZM618.346 748.288L615.754 746.304H617.274L619.466 748.288H618.346ZM628.178 758.08C627.378 758.08 626.658 757.899 626.018 757.536C625.389 757.173 624.893 756.672 624.53 756.032C624.167 755.381 623.986 754.635 623.986 753.792C623.986 752.939 624.167 752.192 624.53 751.552C624.893 750.912 625.389 750.416 626.018 750.064C626.658 749.701 627.378 749.52 628.178 749.52C628.914 749.52 629.57 749.685 630.146 750.016C630.733 750.347 631.197 750.832 631.538 751.472C631.89 752.101 632.066 752.875 632.066 753.792C632.066 754.699 631.895 755.472 631.554 756.112C631.213 756.752 630.749 757.243 630.162 757.584C629.586 757.915 628.925 758.08 628.178 758.08ZM628.258 757.072C628.855 757.072 629.389 756.939 629.858 756.672C630.338 756.395 630.711 756.011 630.978 755.52C631.255 755.019 631.394 754.443 631.394 753.792C631.394 753.131 631.255 752.555 630.978 752.064C630.711 751.573 630.338 751.195 629.858 750.928C629.389 750.651 628.855 750.512 628.258 750.512C627.671 750.512 627.143 750.651 626.674 750.928C626.205 751.195 625.831 751.573 625.554 752.064C625.277 752.555 625.138 753.131 625.138 753.792C625.138 754.443 625.277 755.019 625.554 755.52C625.831 756.011 626.205 756.395 626.674 756.672C627.143 756.939 627.671 757.072 628.258 757.072ZM631.426 758V755.472L631.538 753.776L631.378 752.08V746.128H632.514V758H631.426ZM639.246 758.08C638.371 758.08 637.603 757.899 636.942 757.536C636.28 757.163 635.763 756.656 635.39 756.016C635.016 755.365 634.83 754.624 634.83 753.792C634.83 752.96 635.006 752.224 635.358 751.584C635.72 750.944 636.211 750.443 636.83 750.08C637.459 749.707 638.163 749.52 638.942 749.52C639.731 749.52 640.43 749.701 641.038 750.064C641.656 750.416 642.142 750.917 642.494 751.568C642.846 752.208 643.022 752.949 643.022 753.792C643.022 753.845 643.016 753.904 643.006 753.968C643.006 754.021 643.006 754.08 643.006 754.144H635.694V753.296H642.398L641.95 753.632C641.95 753.024 641.816 752.485 641.55 752.016C641.294 751.536 640.942 751.163 640.494 750.896C640.046 750.629 639.528 750.496 638.942 750.496C638.366 750.496 637.848 750.629 637.39 750.896C636.931 751.163 636.574 751.536 636.318 752.016C636.062 752.496 635.934 753.045 635.934 753.664V753.84C635.934 754.48 636.072 755.045 636.35 755.536C636.638 756.016 637.032 756.395 637.534 756.672C638.046 756.939 638.627 757.072 639.278 757.072C639.79 757.072 640.264 756.981 640.702 756.8C641.15 756.619 641.534 756.341 641.854 755.968L642.494 756.704C642.12 757.152 641.651 757.493 641.086 757.728C640.531 757.963 639.918 758.08 639.246 758.08Z" fill="white"/>
<path id="Belgique" d="M716.824 758V746.8H721.656C722.904 746.8 723.869 747.051 724.552 747.552C725.245 748.053 725.592 748.763 725.592 749.68C725.592 750.288 725.448 750.8 725.16 751.216C724.883 751.632 724.499 751.947 724.008 752.16C723.528 752.373 723 752.48 722.424 752.48L722.696 752.096C723.411 752.096 724.024 752.208 724.536 752.432C725.059 752.645 725.464 752.971 725.752 753.408C726.04 753.835 726.184 754.368 726.184 755.008C726.184 755.957 725.832 756.693 725.128 757.216C724.435 757.739 723.384 758 721.976 758H716.824ZM718.008 757.024H721.96C722.941 757.024 723.693 756.859 724.216 756.528C724.739 756.187 725 755.648 725 754.912C725 754.187 724.739 753.659 724.216 753.328C723.693 752.987 722.941 752.816 721.96 752.816H717.88V751.84H721.576C722.472 751.84 723.165 751.669 723.656 751.328C724.157 750.987 724.408 750.48 724.408 749.808C724.408 749.125 724.157 748.619 723.656 748.288C723.165 747.947 722.472 747.776 721.576 747.776H718.008V757.024ZM732.215 758.08C731.34 758.08 730.572 757.899 729.911 757.536C729.249 757.163 728.732 756.656 728.359 756.016C727.985 755.365 727.799 754.624 727.799 753.792C727.799 752.96 727.975 752.224 728.327 751.584C728.689 750.944 729.18 750.443 729.799 750.08C730.428 749.707 731.132 749.52 731.911 749.52C732.7 749.52 733.399 749.701 734.007 750.064C734.625 750.416 735.111 750.917 735.463 751.568C735.815 752.208 735.991 752.949 735.991 753.792C735.991 753.845 735.985 753.904 735.975 753.968C735.975 754.021 735.975 754.08 735.975 754.144H728.663V753.296H735.367L734.919 753.632C734.919 753.024 734.785 752.485 734.519 752.016C734.263 751.536 733.911 751.163 733.463 750.896C733.015 750.629 732.497 750.496 731.911 750.496C731.335 750.496 730.817 750.629 730.359 750.896C729.9 751.163 729.543 751.536 729.287 752.016C729.031 752.496 728.903 753.045 728.903 753.664V753.84C728.903 754.48 729.041 755.045 729.319 755.536C729.607 756.016 730.001 756.395 730.503 756.672C731.015 756.939 731.596 757.072 732.247 757.072C732.759 757.072 733.233 756.981 733.671 756.8C734.119 756.619 734.503 756.341 734.823 755.968L735.463 756.704C735.089 757.152 734.62 757.493 734.055 757.728C733.5 757.963 732.887 758.08 732.215 758.08ZM738.303 758V746.128H739.439V758H738.303ZM746.184 761.184C745.416 761.184 744.68 761.072 743.976 760.848C743.272 760.624 742.701 760.304 742.264 759.888L742.84 759.024C743.234 759.376 743.72 759.653 744.296 759.856C744.882 760.069 745.501 760.176 746.152 760.176C747.218 760.176 748.002 759.925 748.504 759.424C749.005 758.933 749.256 758.165 749.256 757.12V755.024L749.416 753.584L749.304 752.144V749.6H750.392V756.976C750.392 758.427 750.034 759.488 749.32 760.16C748.616 760.843 747.57 761.184 746.184 761.184ZM745.976 757.68C745.176 757.68 744.456 757.509 743.816 757.168C743.176 756.816 742.669 756.331 742.296 755.712C741.933 755.093 741.752 754.384 741.752 753.584C741.752 752.784 741.933 752.08 742.296 751.472C742.669 750.853 743.176 750.373 743.816 750.032C744.456 749.691 745.176 749.52 745.976 749.52C746.722 749.52 747.394 749.675 747.992 749.984C748.589 750.293 749.064 750.752 749.416 751.36C749.768 751.968 749.944 752.709 749.944 753.584C749.944 754.459 749.768 755.2 749.416 755.808C749.064 756.416 748.589 756.88 747.992 757.2C747.394 757.52 746.722 757.68 745.976 757.68ZM746.088 756.672C746.706 756.672 747.256 756.544 747.736 756.288C748.216 756.021 748.594 755.659 748.872 755.2C749.149 754.731 749.288 754.192 749.288 753.584C749.288 752.976 749.149 752.443 748.872 751.984C748.594 751.525 748.216 751.168 747.736 750.912C747.256 750.645 746.706 750.512 746.088 750.512C745.48 750.512 744.93 750.645 744.44 750.912C743.96 751.168 743.581 751.525 743.304 751.984C743.037 752.443 742.904 752.976 742.904 753.584C742.904 754.192 743.037 754.731 743.304 755.2C743.581 755.659 743.96 756.021 744.44 756.288C744.93 756.544 745.48 756.672 746.088 756.672ZM753.553 758V749.6H754.689V758H753.553ZM754.129 747.744C753.894 747.744 753.697 747.664 753.537 747.504C753.377 747.344 753.297 747.152 753.297 746.928C753.297 746.704 753.377 746.517 753.537 746.368C753.697 746.208 753.894 746.128 754.129 746.128C754.363 746.128 754.561 746.203 754.721 746.352C754.881 746.501 754.961 746.688 754.961 746.912C754.961 747.147 754.881 747.344 754.721 747.504C754.571 747.664 754.374 747.744 754.129 747.744ZM761.194 758.08C760.394 758.08 759.674 757.899 759.034 757.536C758.404 757.173 757.908 756.672 757.546 756.032C757.183 755.392 757.002 754.645 757.002 753.792C757.002 752.949 757.183 752.208 757.546 751.568C757.908 750.917 758.404 750.416 759.034 750.064C759.674 749.701 760.394 749.52 761.194 749.52C761.94 749.52 762.602 749.685 763.178 750.016C763.764 750.347 764.228 750.832 764.57 751.472C764.911 752.101 765.082 752.875 765.082 753.792C765.082 754.709 764.906 755.488 764.554 756.128C764.212 756.757 763.748 757.243 763.162 757.584C762.586 757.915 761.93 758.08 761.194 758.08ZM761.274 757.072C761.871 757.072 762.404 756.939 762.874 756.672C763.354 756.395 763.727 756.011 763.994 755.52C764.271 755.019 764.41 754.443 764.41 753.792C764.41 753.141 764.271 752.571 763.994 752.08C763.727 751.589 763.354 751.205 762.874 750.928C762.404 750.651 761.871 750.512 761.274 750.512C760.687 750.512 760.159 750.651 759.69 750.928C759.22 751.205 758.847 751.589 758.57 752.08C758.292 752.571 758.154 753.141 758.154 753.792C758.154 754.443 758.292 755.019 758.57 755.52C758.847 756.011 759.22 756.395 759.69 756.672C760.159 756.939 760.687 757.072 761.274 757.072ZM764.394 761.104V755.504L764.554 753.808L764.442 752.128V749.6H765.53V761.104H764.394ZM772.165 758.08C771.451 758.08 770.827 757.947 770.293 757.68C769.76 757.413 769.344 757.013 769.045 756.48C768.757 755.947 768.613 755.28 768.613 754.48V749.6H769.749V754.352C769.749 755.248 769.968 755.925 770.405 756.384C770.853 756.832 771.477 757.056 772.277 757.056C772.864 757.056 773.371 756.939 773.797 756.704C774.235 756.459 774.565 756.107 774.789 755.648C775.024 755.189 775.141 754.64 775.141 754V749.6H776.277V758H775.189V755.696L775.365 756.112C775.099 756.731 774.683 757.216 774.117 757.568C773.563 757.909 772.912 758.08 772.165 758.08ZM783.011 758.08C782.137 758.08 781.369 757.899 780.707 757.536C780.046 757.163 779.529 756.656 779.155 756.016C778.782 755.365 778.595 754.624 778.595 753.792C778.595 752.96 778.771 752.224 779.123 751.584C779.486 750.944 779.977 750.443 780.595 750.08C781.225 749.707 781.929 749.52 782.707 749.52C783.497 749.52 784.195 749.701 784.803 750.064C785.422 750.416 785.907 750.917 786.259 751.568C786.611 752.208 786.787 752.949 786.787 753.792C786.787 753.845 786.782 753.904 786.771 753.968C786.771 754.021 786.771 754.08 786.771 754.144H779.459V753.296H786.163L785.715 753.632C785.715 753.024 785.582 752.485 785.315 752.016C785.059 751.536 784.707 751.163 784.259 750.896C783.811 750.629 783.294 750.496 782.707 750.496C782.131 750.496 781.614 750.629 781.155 750.896C780.697 751.163 780.339 751.536 780.083 752.016C779.827 752.496 779.699 753.045 779.699 753.664V753.84C779.699 754.48 779.838 755.045 780.115 755.536C780.403 756.016 780.798 756.395 781.299 756.672C781.811 756.939 782.393 757.072 783.043 757.072C783.555 757.072 784.03 756.981 784.467 756.8C784.915 756.619 785.299 756.341 785.619 755.968L786.259 756.704C785.886 757.152 785.417 757.493 784.851 757.728C784.297 757.963 783.683 758.08 783.011 758.08Z" fill="white"/>
</g>
<g id="Group6">
<rect id="Rectangle 53" x="53.5" y="38.5" width="111" height="687" fill="url(#paint0_linear_133_37)" stroke="white"/>
<rect id="Rectangle 56" x="433" y="42" width="112" height="684" fill="#D9D9D9"/>
<rect id="Rectangle 54" x="175" y="716" width="112" height="10" fill="#D9D9D9"/>
<rect id="Rectangle 57" x="563" y="716" width="112" height="10" fill="#D9D9D9"/>
<rect id="Rectangle 55" x="303" y="512" width="112" height="214" fill="#D9D9D9"/>
<rect id="Rectangle 58" x="696" y="512" width="112" height="214" fill="#D9D9D9"/>
</g>
<g id="nombres">
<path id="0" d="M26.0859 715.406V717.141C26.0859 718.073 26.0026 718.859 25.8359 719.5C25.6693 720.141 25.4297 720.656 25.1172 721.047C24.8047 721.438 24.4271 721.721 23.9844 721.898C23.5469 722.07 23.0521 722.156 22.5 722.156C22.0625 722.156 21.6589 722.102 21.2891 721.992C20.9193 721.883 20.5859 721.708 20.2891 721.469C19.9974 721.224 19.7474 720.906 19.5391 720.516C19.3307 720.125 19.1719 719.651 19.0625 719.094C18.9531 718.536 18.8984 717.885 18.8984 717.141V715.406C18.8984 714.474 18.9818 713.693 19.1484 713.062C19.3203 712.432 19.5625 711.927 19.875 711.547C20.1875 711.161 20.5625 710.885 21 710.719C21.4427 710.552 21.9375 710.469 22.4844 710.469C22.9271 710.469 23.3333 710.523 23.7031 710.633C24.0781 710.737 24.4115 710.906 24.7031 711.141C24.9948 711.37 25.2422 711.677 25.4453 712.062C25.6536 712.443 25.8125 712.909 25.9219 713.461C26.0312 714.013 26.0859 714.661 26.0859 715.406ZM24.6328 717.375V715.164C24.6328 714.654 24.6016 714.206 24.5391 713.82C24.4818 713.43 24.3958 713.096 24.2812 712.82C24.1667 712.544 24.0208 712.32 23.8438 712.148C23.6719 711.977 23.4714 711.852 23.2422 711.773C23.0182 711.69 22.7656 711.648 22.4844 711.648C22.1406 711.648 21.8359 711.714 21.5703 711.844C21.3047 711.969 21.0807 712.169 20.8984 712.445C20.7214 712.721 20.5859 713.083 20.4922 713.531C20.3984 713.979 20.3516 714.523 20.3516 715.164V717.375C20.3516 717.885 20.3802 718.336 20.4375 718.727C20.5 719.117 20.5911 719.456 20.7109 719.742C20.8307 720.023 20.9766 720.255 21.1484 720.438C21.3203 720.62 21.5182 720.755 21.7422 720.844C21.9714 720.927 22.224 720.969 22.5 720.969C22.8542 720.969 23.1641 720.901 23.4297 720.766C23.6953 720.63 23.9167 720.419 24.0938 720.133C24.276 719.841 24.4115 719.469 24.5 719.016C24.5885 718.557 24.6328 718.01 24.6328 717.375Z" fill="white"/>
<path id="50" d="M11.7734 376.586L10.6172 376.289L11.1875 370.625H17.0234V371.961H12.4141L12.0703 375.055C12.2786 374.935 12.5417 374.823 12.8594 374.719C13.1823 374.615 13.5521 374.562 13.9688 374.562C14.4948 374.562 14.9661 374.654 15.3828 374.836C15.7995 375.013 16.1536 375.268 16.4453 375.602C16.7422 375.935 16.9688 376.336 17.125 376.805C17.2812 377.273 17.3594 377.797 17.3594 378.375C17.3594 378.922 17.2839 379.424 17.1328 379.883C16.987 380.341 16.7656 380.742 16.4688 381.086C16.1719 381.424 15.7969 381.688 15.3438 381.875C14.8958 382.062 14.3672 382.156 13.7578 382.156C13.2995 382.156 12.8646 382.094 12.4531 381.969C12.0469 381.839 11.6823 381.643 11.3594 381.383C11.0417 381.117 10.7812 380.789 10.5781 380.398C10.3802 380.003 10.2552 379.539 10.2031 379.008H11.5781C11.6406 379.435 11.7656 379.794 11.9531 380.086C12.1406 380.378 12.3854 380.599 12.6875 380.75C12.9948 380.896 13.3516 380.969 13.7578 380.969C14.1016 380.969 14.4062 380.909 14.6719 380.789C14.9375 380.669 15.1615 380.497 15.3438 380.273C15.526 380.049 15.6641 379.779 15.7578 379.461C15.8568 379.143 15.9062 378.786 15.9062 378.391C15.9062 378.031 15.8568 377.698 15.7578 377.391C15.6589 377.083 15.5104 376.815 15.3125 376.586C15.1198 376.357 14.8828 376.18 14.6016 376.055C14.3203 375.924 13.9974 375.859 13.6328 375.859C13.1484 375.859 12.7812 375.924 12.5312 376.055C12.2865 376.185 12.0339 376.362 11.7734 376.586ZM26.0859 375.406V377.141C26.0859 378.073 26.0026 378.859 25.8359 379.5C25.6693 380.141 25.4297 380.656 25.1172 381.047C24.8047 381.438 24.4271 381.721 23.9844 381.898C23.5469 382.07 23.0521 382.156 22.5 382.156C22.0625 382.156 21.6589 382.102 21.2891 381.992C20.9193 381.883 20.5859 381.708 20.2891 381.469C19.9974 381.224 19.7474 380.906 19.5391 380.516C19.3307 380.125 19.1719 379.651 19.0625 379.094C18.9531 378.536 18.8984 377.885 18.8984 377.141V375.406C18.8984 374.474 18.9818 373.693 19.1484 373.062C19.3203 372.432 19.5625 371.927 19.875 371.547C20.1875 371.161 20.5625 370.885 21 370.719C21.4427 370.552 21.9375 370.469 22.4844 370.469C22.9271 370.469 23.3333 370.523 23.7031 370.633C24.0781 370.737 24.4115 370.906 24.7031 371.141C24.9948 371.37 25.2422 371.677 25.4453 372.062C25.6536 372.443 25.8125 372.909 25.9219 373.461C26.0312 374.013 26.0859 374.661 26.0859 375.406ZM24.6328 377.375V375.164C24.6328 374.654 24.6016 374.206 24.5391 373.82C24.4818 373.43 24.3958 373.096 24.2812 372.82C24.1667 372.544 24.0208 372.32 23.8438 372.148C23.6719 371.977 23.4714 371.852 23.2422 371.773C23.0182 371.69 22.7656 371.648 22.4844 371.648C22.1406 371.648 21.8359 371.714 21.5703 371.844C21.3047 371.969 21.0807 372.169 20.8984 372.445C20.7214 372.721 20.5859 373.083 20.4922 373.531C20.3984 373.979 20.3516 374.523 20.3516 375.164V377.375C20.3516 377.885 20.3802 378.336 20.4375 378.727C20.5 379.117 20.5911 379.456 20.7109 379.742C20.8307 380.023 20.9766 380.255 21.1484 380.438C21.3203 380.62 21.5182 380.755 21.7422 380.844C21.9714 380.927 22.224 380.969 22.5 380.969C22.8542 380.969 23.1641 380.901 23.4297 380.766C23.6953 380.63 23.9167 380.419 24.0938 380.133C24.276 379.841 24.4115 379.469 24.5 379.016C24.5885 378.557 24.6328 378.01 24.6328 377.375Z" fill="white"/>
<path id="100" d="M5.69531 26.5625V38H4.25V28.3672L1.33594 29.4297V28.125L5.46875 26.5625H5.69531ZM17.0859 31.4062V33.1406C17.0859 34.0729 17.0026 34.8594 16.8359 35.5C16.6693 36.1406 16.4297 36.6562 16.1172 37.0469C15.8047 37.4375 15.4271 37.7214 14.9844 37.8984C14.5469 38.0703 14.0521 38.1562 13.5 38.1562C13.0625 38.1562 12.6589 38.1016 12.2891 37.9922C11.9193 37.8828 11.5859 37.7083 11.2891 37.4688C10.9974 37.224 10.7474 36.9062 10.5391 36.5156C10.3307 36.125 10.1719 35.651 10.0625 35.0938C9.95312 34.5365 9.89844 33.8854 9.89844 33.1406V31.4062C9.89844 30.474 9.98177 29.6927 10.1484 29.0625C10.3203 28.4323 10.5625 27.9271 10.875 27.5469C11.1875 27.1615 11.5625 26.8854 12 26.7188C12.4427 26.5521 12.9375 26.4688 13.4844 26.4688C13.9271 26.4688 14.3333 26.5234 14.7031 26.6328C15.0781 26.737 15.4115 26.9062 15.7031 27.1406C15.9948 27.3698 16.2422 27.6771 16.4453 28.0625C16.6536 28.4427 16.8125 28.9089 16.9219 29.4609C17.0312 30.013 17.0859 30.6615 17.0859 31.4062ZM15.6328 33.375V31.1641C15.6328 30.6536 15.6016 30.2057 15.5391 29.8203C15.4818 29.4297 15.3958 29.0964 15.2812 28.8203C15.1667 28.5443 15.0208 28.3203 14.8438 28.1484C14.6719 27.9766 14.4714 27.8516 14.2422 27.7734C14.0182 27.6901 13.7656 27.6484 13.4844 27.6484C13.1406 27.6484 12.8359 27.7135 12.5703 27.8438C12.3047 27.9688 12.0807 28.1693 11.8984 28.4453C11.7214 28.7214 11.5859 29.0833 11.4922 29.5312C11.3984 29.9792 11.3516 30.5234 11.3516 31.1641V33.375C11.3516 33.8854 11.3802 34.3359 11.4375 34.7266C11.5 35.1172 11.5911 35.4557 11.7109 35.7422C11.8307 36.0234 11.9766 36.2552 12.1484 36.4375C12.3203 36.6198 12.5182 36.7552 12.7422 36.8438C12.9714 36.9271 13.224 36.9688 13.5 36.9688C13.8542 36.9688 14.1641 36.901 14.4297 36.7656C14.6953 36.6302 14.9167 36.4193 15.0938 36.1328C15.276 35.8411 15.4115 35.4688 15.5 35.0156C15.5885 34.5573 15.6328 34.0104 15.6328 33.375ZM26.0859 31.4062V33.1406C26.0859 34.0729 26.0026 34.8594 25.8359 35.5C25.6693 36.1406 25.4297 36.6562 25.1172 37.0469C24.8047 37.4375 24.4271 37.7214 23.9844 37.8984C23.5469 38.0703 23.0521 38.1562 22.5 38.1562C22.0625 38.1562 21.6589 38.1016 21.2891 37.9922C20.9193 37.8828 20.5859 37.7083 20.2891 37.4688C19.9974 37.224 19.7474 36.9062 19.5391 36.5156C19.3307 36.125 19.1719 35.651 19.0625 35.0938C18.9531 34.5365 18.8984 33.8854 18.8984 33.1406V31.4062C18.8984 30.474 18.9818 29.6927 19.1484 29.0625C19.3203 28.4323 19.5625 27.9271 19.875 27.5469C20.1875 27.1615 20.5625 26.8854 21 26.7188C21.4427 26.5521 21.9375 26.4688 22.4844 26.4688C22.9271 26.4688 23.3333 26.5234 23.7031 26.6328C24.0781 26.737 24.4115 26.9062 24.7031 27.1406C24.9948 27.3698 25.2422 27.6771 25.4453 28.0625C25.6536 28.4427 25.8125 28.9089 25.9219 29.4609C26.0312 30.013 26.0859 30.6615 26.0859 31.4062ZM24.6328 33.375V31.1641C24.6328 30.6536 24.6016 30.2057 24.5391 29.8203C24.4818 29.4297 24.3958 29.0964 24.2812 28.8203C24.1667 28.5443 24.0208 28.3203 23.8438 28.1484C23.6719 27.9766 23.4714 27.8516 23.2422 27.7734C23.0182 27.6901 22.7656 27.6484 22.4844 27.6484C22.1406 27.6484 21.8359 27.7135 21.5703 27.8438C21.3047 27.9688 21.0807 28.1693 20.8984 28.4453C20.7214 28.7214 20.5859 29.0833 20.4922 29.5312C20.3984 29.9792 20.3516 30.5234 20.3516 31.1641V33.375C20.3516 33.8854 20.3802 34.3359 20.4375 34.7266C20.5 35.1172 20.5911 35.4557 20.7109 35.7422C20.8307 36.0234 20.9766 36.2552 21.1484 36.4375C21.3203 36.6198 21.5182 36.7552 21.7422 36.8438C21.9714 36.9271 22.224 36.9688 22.5 36.9688C22.8542 36.9688 23.1641 36.901 23.4297 36.7656C23.6953 36.6302 23.9167 36.4193 24.0938 36.1328C24.276 35.8411 24.4115 35.4688 24.5 35.0156C24.5885 34.5573 24.6328 34.0104 24.6328 33.375Z" fill="white"/>
</g>
</g>
<defs>
<filter id="filter0_d_133_37" x="13.7" y="0.700245" width="76.6" height="762.6" filterUnits="userSpaceOnUse" color-interpolation-filters="sRGB">
<feFlood flood-opacity="0" result="BackgroundImageFix"/>
<feColorMatrix in="SourceAlpha" type="matrix" values="0 0 0 0 0 0 0 0 0 0 0 0 0 0 0 0 0 0 127 0" result="hardAlpha"/>
<feOffset/>
<feGaussianBlur stdDeviation="18.65"/>
<feComposite in2="hardAlpha" operator="out"/>
<feColorMatrix type="matrix" values="0 0 0 0 1 0 0 0 0 1 0 0 0 0 1 0 0 0 0.5 0"/>
<feBlend mode="normal" in2="BackgroundImageFix" result="effect1_dropShadow_133_37"/>
<feBlend mode="normal" in="SourceGraphic" in2="effect1_dropShadow_133_37" result="shape"/>
</filter>
<filter id="filter1_d_133_37" x="13.7" y="688.7" width="950.6" height="76.6" filterUnits="userSpaceOnUse" color-interpolation-filters="sRGB">
<feFlood flood-opacity="0" result="BackgroundImageFix"/>
<feColorMatrix in="SourceAlpha" type="matrix" values="0 0 0 0 0 0 0 0 0 0 0 0 0 0 0 0 0 0 127 0" result="hardAlpha"/>
<feOffset/>
<feGaussianBlur stdDeviation="18.65"/>
<feComposite in2="hardAlpha" operator="out"/>
<feColorMatrix type="matrix" values="0 0 0 0 1 0 0 0 0 1 0 0 0 0 1 0 0 0 0.5 0"/>
<feBlend mode="normal" in2="BackgroundImageFix" result="effect1_dropShadow_133_37"/>
<feBlend mode="normal" in="SourceGraphic" in2="effect1_dropShadow_133_37" result="shape"/>
</filter>
<linearGradient id="paint0_linear_133_37" x1="109" y1="38" x2="109" y2="726" gradientUnits="userSpaceOnUse">
<stop stop-color="#19002F"/>
<stop offset="1" stop-color="#0C2472"/>
</linearGradient>
</defs>
</svg>
