<svg width="965" height="766" viewBox="0 0 965 766" fill="none" xmlns="http://www.w3.org/2000/svg">
<g id="grapheabrre">
<g id="Line 9" filter="url(#filter0_d_106_302)">
<line x1="52" y1="38.0002" x2="52" y2="726" stroke="#B9F2FF" stroke-width="2"/>
</g>
<g id="Line 10" filter="url(#filter1_d_106_302)">
<line x1="927" y1="727" x2="51" y2="727" stroke="#B9F2FF" stroke-width="2"/>
</g>
<g id="Group6">
<rect id="Rectangle 53" x="53.5" y="38.5" width="111" height="687" fill="url(#paint0_linear_106_302)" stroke="white"/>
<rect id="Rectangle 56" x="433" y="42" width="112" height="684" fill="#D9D9D9"/>
<rect id="Rectangle 54" x="175" y="716" width="112" height="10" fill="#D9D9D9"/>
<rect id="Rectangle 57" x="563" y="716" width="112" height="10" fill="#D9D9D9"/>
<rect id="Rectangle 55" x="303" y="512" width="112" height="214" fill="#D9D9D9"/>
<rect id="Rectangle 58" x="696" y="512" width="112" height="214" fill="#D9D9D9"/>
</g>
<g id="nombres">
<path id="0" d="M26.0859 715.406V717.141C26.0859 718.073 26.0026 718.859 25.8359 719.5C25.6693 720.141 25.4297 720.656 25.1172 721.047C24.8047 721.438 24.4271 721.721 23.9844 721.898C23.5469 722.07 23.0521 722.156 22.5 722.156C22.0625 722.156 21.6589 722.102 21.2891 721.992C20.9193 721.883 20.5859 721.708 20.2891 721.469C19.9974 721.224 19.7474 720.906 19.5391 720.516C19.3307 720.125 19.1719 719.651 19.0625 719.094C18.9531 718.536 18.8984 717.885 18.8984 717.141V715.406C18.8984 714.474 18.9818 713.693 19.1484 713.062C19.3203 712.432 19.5625 711.927 19.875 711.547C20.1875 711.161 20.5625 710.885 21 710.719C21.4427 710.552 21.9375 710.469 22.4844 710.469C22.9271 710.469 23.3333 710.523 23.7031 710.633C24.0781 710.737 24.4115 710.906 24.7031 711.141C24.9948 711.37 25.2422 711.677 25.4453 712.062C25.6536 712.443 25.8125 712.909 25.9219 713.461C26.0312 714.013 26.0859 714.661 26.0859 715.406ZM24.6328 717.375V715.164C24.6328 714.654 24.6016 714.206 24.5391 713.82C24.4818 713.43 24.3958 713.096 24.2812 712.82C24.1667 712.544 24.0208 712.32 23.8438 712.148C23.6719 711.977 23.4714 711.852 23.2422 711.773C23.0182 711.69 22.7656 711.648 22.4844 711.648C22.1406 711.648 21.8359 711.714 21.5703 711.844C21.3047 711.969 21.0807 712.169 20.8984 712.445C20.7214 712.721 20.5859 713.083 20.4922 713.531C20.3984 713.979 20.3516 714.523 20.3516 715.164V717.375C20.3516 717.885 20.3802 718.336 20.4375 718.727C20.5 719.117 20.5911 719.456 20.7109 719.742C20.8307 720.023 20.9766 720.255 21.1484 720.438C21.3203 720.62 21.5182 720.755 21.7422 720.844C21.9714 720.927 22.224 720.969 22.5 720.969C22.8542 720.969 23.1641 720.901 23.4297 720.766C23.6953 720.63 23.9167 720.419 24.0938 720.133C24.276 719.841 24.4115 719.469 24.5 719.016C24.5885 718.557 24.6328 718.01 24.6328 717.375Z" fill="white"/>
<path id="50" d="M11.7734 376.586L10.6172 376.289L11.1875 370.625H17.0234V371.961H12.4141L12.0703 375.055C12.2786 374.935 12.5417 374.823 12.8594 374.719C13.1823 374.615 13.5521 374.562 13.9688 374.562C14.4948 374.562 14.9661 374.654 15.3828 374.836C15.7995 375.013 16.1536 375.268 16.4453 375.602C16.7422 375.935 16.9688 376.336 17.125 376.805C17.2812 377.273 17.3594 377.797 17.3594 378.375C17.3594 378.922 17.2839 379.424 17.1328 379.883C16.987 380.341 16.7656 380.742 16.4688 381.086C16.1719 381.424 15.7969 381.688 15.3438 381.875C14.8958 382.062 14.3672 382.156 13.7578 382.156C13.2995 382.156 12.8646 382.094 12.4531 381.969C12.0469 381.839 11.6823 381.643 11.3594 381.383C11.0417 381.117 10.7812 380.789 10.5781 380.398C10.3802 380.003 10.2552 379.539 10.2031 379.008H11.5781C11.6406 379.435 11.7656 379.794 11.9531 380.086C12.1406 380.378 12.3854 380.599 12.6875 380.75C12.9948 380.896 13.3516 380.969 13.7578 380.969C14.1016 380.969 14.4062 380.909 14.6719 380.789C14.9375 380.669 15.1615 380.497 15.3438 380.273C15.526 380.049 15.6641 379.779 15.7578 379.461C15.8568 379.143 15.9062 378.786 15.9062 378.391C15.9062 378.031 15.8568 377.698 15.7578 377.391C15.6589 377.083 15.5104 376.815 15.3125 376.586C15.1198 376.357 14.8828 376.18 14.6016 376.055C14.3203 375.924 13.9974 375.859 13.6328 375.859C13.1484 375.859 12.7812 375.924 12.5312 376.055C12.2865 376.185 12.0339 376.362 11.7734 376.586ZM26.0859 375.406V377.141C26.0859 378.073 26.0026 378.859 25.8359 379.5C25.6693 380.141 25.4297 380.656 25.1172 381.047C24.8047 381.438 24.4271 381.721 23.9844 381.898C23.5469 382.07 23.0521 382.156 22.5 382.156C22.0625 382.156 21.6589 382.102 21.2891 381.992C20.9193 381.883 20.5859 381.708 20.2891 381.469C19.9974 381.224 19.7474 380.906 19.5391 380.516C19.3307 380.125 19.1719 379.651 19.0625 379.094C18.9531 378.536 18.8984 377.885 18.8984 377.141V375.406C18.8984 374.474 18.9818 373.693 19.1484 373.062C19.3203 372.432 19.5625 371.927 19.875 371.547C20.1875 371.161 20.5625 370.885 21 370.719C21.4427 370.552 21.9375 370.469 22.4844 370.469C22.9271 370.469 23.3333 370.523 23.7031 370.633C24.0781 370.737 24.4115 370.906 24.7031 371.141C24.9948 371.37 25.2422 371.677 25.4453 372.062C25.6536 372.443 25.8125 372.909 25.9219 373.461C26.0312 374.013 26.0859 374.661 26.0859 375.406ZM24.6328 377.375V375.164C24.6328 374.654 24.6016 374.206 24.5391 373.82C24.4818 373.43 24.3958 373.096 24.2812 372.82C24.1667 372.544 24.0208 372.32 23.8438 372.148C23.6719 371.977 23.4714 371.852 23.2422 371.773C23.0182 371.69 22.7656 371.648 22.4844 371.648C22.1406 371.648 21.8359 371.714 21.5703 371.844C21.3047 371.969 21.0807 372.169 20.8984 372.445C20.7214 372.721 20.5859 373.083 20.4922 373.531C20.3984 373.979 20.3516 374.523 20.3516 375.164V377.375C20.3516 377.885 20.3802 378.336 20.4375 378.727C20.5 379.117 20.5911 379.456 20.7109 379.742C20.8307 380.023 20.9766 380.255 21.1484 380.438C21.3203 380.62 21.5182 380.755 21.7422 380.844C21.9714 380.927 22.224 380.969 22.5 380.969C22.8542 380.969 23.1641 380.901 23.4297 380.766C23.6953 380.63 23.9167 380.419 24.0938 380.133C24.276 379.841 24.4115 379.469 24.5 379.016C24.5885 378.557 24.6328 378.01 24.6328 377.375Z" fill="white"/>
<path id="100" d="M5.69531 26.5625V38H4.25V28.3672L1.33594 29.4297V28.125L5.46875 26.5625H5.69531ZM17.0859 31.4062V33.1406C17.0859 34.0729 17.0026 34.8594 16.8359 35.5C16.6693 36.1406 16.4297 36.6562 16.1172 37.0469C15.8047 37.4375 15.4271 37.7214 14.9844 37.8984C14.5469 38.0703 14.0521 38.1562 13.5 38.1562C13.0625 38.1562 12.6589 38.1016 12.2891 37.9922C11.9193 37.8828 11.5859 37.7083 11.2891 37.4688C10.9974 37.224 10.7474 36.9062 10.5391 36.5156C10.3307 36.125 10.1719 35.651 10.0625 35.0938C9.95312 34.5365 9.89844 33.8854 9.89844 33.1406V31.4062C9.89844 30.474 9.98177 29.6927 10.1484 29.0625C10.3203 28.4323 10.5625 27.9271 10.875 27.5469C11.1875 27.1615 11.5625 26.8854 12 26.7188C12.4427 26.5521 12.9375 26.4688 13.4844 26.4688C13.9271 26.4688 14.3333 26.5234 14.7031 26.6328C15.0781 26.737 15.4115 26.9062 15.7031 27.1406C15.9948 27.3698 16.2422 27.6771 16.4453 28.0625C16.6536 28.4427 16.8125 28.9089 16.9219 29.4609C17.0312 30.013 17.0859 30.6615 17.0859 31.4062ZM15.6328 33.375V31.1641C15.6328 30.6536 15.6016 30.2057 15.5391 29.8203C15.4818 29.4297 15.3958 29.0964 15.2812 28.8203C15.1667 28.5443 15.0208 28.3203 14.8438 28.1484C14.6719 27.9766 14.4714 27.8516 14.2422 27.7734C14.0182 27.6901 13.7656 27.6484 13.4844 27.6484C13.1406 27.6484 12.8359 27.7135 12.5703 27.8438C12.3047 27.9688 12.0807 28.1693 11.8984 28.4453C11.7214 28.7214 11.5859 29.0833 11.4922 29.5312C11.3984 29.9792 11.3516 30.5234 11.3516 31.1641V33.375C11.3516 33.8854 11.3802 34.3359 11.4375 34.7266C11.5 35.1172 11.5911 35.4557 11.7109 35.7422C11.8307 36.0234 11.9766 36.2552 12.1484 36.4375C12.3203 36.6198 12.5182 36.7552 12.7422 36.8438C12.9714 36.9271 13.224 36.9688 13.5 36.9688C13.8542 36.9688 14.1641 36.901 14.4297 36.7656C14.6953 36.6302 14.9167 36.4193 15.0938 36.1328C15.276 35.8411 15.4115 35.4688 15.5 35.0156C15.5885 34.5573 15.6328 34.0104 15.6328 33.375ZM26.0859 31.4062V33.1406C26.0859 34.0729 26.0026 34.8594 25.8359 35.5C25.6693 36.1406 25.4297 36.6562 25.1172 37.0469C24.8047 37.4375 24.4271 37.7214 23.9844 37.8984C23.5469 38.0703 23.0521 38.1562 22.5 38.1562C22.0625 38.1562 21.6589 38.1016 21.2891 37.9922C20.9193 37.8828 20.5859 37.7083 20.2891 37.4688C19.9974 37.224 19.7474 36.9062 19.5391 36.5156C19.3307 36.125 19.1719 35.651 19.0625 35.0938C18.9531 34.5365 18.8984 33.8854 18.8984 33.1406V31.4062C18.8984 30.474 18.9818 29.6927 19.1484 29.0625C19.3203 28.4323 19.5625 27.9271 19.875 27.5469C20.1875 27.1615 20.5625 26.8854 21 26.7188C21.4427 26.5521 21.9375 26.4688 22.4844 26.4688C22.9271 26.4688 23.3333 26.5234 23.7031 26.6328C24.0781 26.737 24.4115 26.9062 24.7031 27.1406C24.9948 27.3698 25.2422 27.6771 25.4453 28.0625C25.6536 28.4427 25.8125 28.9089 25.9219 29.4609C26.0312 30.013 26.0859 30.6615 26.0859 31.4062ZM24.6328 33.375V31.1641C24.6328 30.6536 24.6016 30.2057 24.5391 29.8203C24.4818 29.4297 24.3958 29.0964 24.2812 28.8203C24.1667 28.5443 24.0208 28.3203 23.8438 28.1484C23.6719 27.9766 23.4714 27.8516 23.2422 27.7734C23.0182 27.6901 22.7656 27.6484 22.4844 27.6484C22.1406 27.6484 21.8359 27.7135 21.5703 27.8438C21.3047 27.9688 21.0807 28.1693 20.8984 28.4453C20.7214 28.7214 20.5859 29.0833 20.4922 29.5312C20.3984 29.9792 20.3516 30.5234 20.3516 31.1641V33.375C20.3516 33.8854 20.3802 34.3359 20.4375 34.7266C20.5 35.1172 20.5911 35.4557 20.7109 35.7422C20.8307 36.0234 20.9766 36.2552 21.1484 36.4375C21.3203 36.6198 21.5182 36.7552 21.7422 36.8438C21.9714 36.9271 22.224 36.9688 22.5 36.9688C22.8542 36.9688 23.1641 36.901 23.4297 36.7656C23.6953 36.6302 23.9167 36.4193 24.0938 36.1328C24.276 35.8411 24.4115 35.4688 24.5 35.0156C24.5885 34.5573 24.6328 34.0104 24.6328 33.375Z" fill="white"/>
</g>
</g>
<defs>
<filter id="filter0_d_106_302" x="13.7" y="0.700184" width="76.6" height="762.6" filterUnits="userSpaceOnUse" color-interpolation-filters="sRGB">
<feFlood flood-opacity="0" result="BackgroundImageFix"/>
<feColorMatrix in="SourceAlpha" type="matrix" values="0 0 0 0 0 0 0 0 0 0 0 0 0 0 0 0 0 0 127 0" result="hardAlpha"/>
<feOffset/>
<feGaussianBlur stdDeviation="18.65"/>
<feComposite in2="hardAlpha" operator="out"/>
<feColorMatrix type="matrix" values="0 0 0 0 1 0 0 0 0 1 0 0 0 0 1 0 0 0 0.5 0"/>
<feBlend mode="normal" in2="BackgroundImageFix" result="effect1_dropShadow_106_302"/>
<feBlend mode="normal" in="SourceGraphic" in2="effect1_dropShadow_106_302" result="shape"/>
</filter>
<filter id="filter1_d_106_302" x="13.7" y="688.7" width="950.6" height="76.6" filterUnits="userSpaceOnUse" color-interpolation-filters="sRGB">
<feFlood flood-opacity="0" result="BackgroundImageFix"/>
<feColorMatrix in="SourceAlpha" type="matrix" values="0 0 0 0 0 0 0 0 0 0 0 0 0 0 0 0 0 0 127 0" result="hardAlpha"/>
<feOffset/>
<feGaussianBlur stdDeviation="18.65"/>
<feComposite in2="hardAlpha" operator="out"/>
<feColorMatrix type="matrix" values="0 0 0 0 1 0 0 0 0 1 0 0 0 0 1 0 0 0 0.5 0"/>
<feBlend mode="normal" in2="BackgroundImageFix" result="effect1_dropShadow_106_302"/>
<feBlend mode="normal" in="SourceGraphic" in2="effect1_dropShadow_106_302" result="shape"/>
</filter>
<linearGradient id="paint0_linear_106_302" x1="109" y1="38" x2="109" y2="726" gradientUnits="userSpaceOnUse">
<stop stop-color="#19002F"/>
<stop offset="1" stop-color="#0C2472"/>
</linearGradient>
</defs>
</svg>
