<svg width="581" height="581" viewBox="0 0 581 581" fill="none" xmlns="http://www.w3.org/2000/svg">
<g id="Group 1">
<g id="Ellipse 23">
<mask id="path-1-inside-1_71_26" fill="white">
<path d="M559 290.5C559 438.788 438.788 559 290.5 559C142.212 559 22 438.788 22 290.5C22 142.212 142.212 22 290.5 22C438.788 22 559 142.212 559 290.5ZM65.3816 290.5C65.3816 414.829 166.171 515.618 290.5 515.618C414.829 515.618 515.618 414.829 515.618 290.5C515.618 166.171 414.829 65.3816 290.5 65.3816C166.171 65.3816 65.3816 166.171 65.3816 290.5Z"/>
</mask>
<path d="M559 290.5C559 438.788 438.788 559 290.5 559C142.212 559 22 438.788 22 290.5C22 142.212 142.212 22 290.5 22C438.788 22 559 142.212 559 290.5ZM65.3816 290.5C65.3816 414.829 166.171 515.618 290.5 515.618C414.829 515.618 515.618 414.829 515.618 290.5C515.618 166.171 414.829 65.3816 290.5 65.3816C166.171 65.3816 65.3816 166.171 65.3816 290.5Z" stroke="#9D9D9D" stroke-width="2" mask="url(#path-1-inside-1_71_26)"/>
</g>
<g id="Ellipse 22" filter="url(#filter0_d_71_26)">
<path d="M559 290.5C559 345.073 542.371 398.35 511.327 443.234C480.284 488.117 436.301 522.475 385.238 541.731C334.175 560.987 278.457 564.225 225.507 551.015C172.557 537.805 124.889 508.774 88.855 467.789C52.8207 426.805 30.1307 375.813 23.8081 321.608C17.4855 267.402 27.8304 212.557 53.4645 164.379C79.0987 116.202 118.805 76.9788 167.293 51.9369C215.781 26.895 270.749 17.2229 324.873 24.2093L319.319 67.234C273.94 61.3764 227.854 69.4857 187.2 90.4816C146.546 111.478 113.255 144.363 91.7624 184.757C70.27 225.15 61.5965 271.134 66.8976 316.581C72.1987 362.029 91.2226 404.782 121.435 439.145C151.647 473.507 191.613 497.848 236.008 508.924C280.403 519.999 327.118 517.284 369.931 501.139C412.744 484.995 449.621 456.188 475.648 418.556C501.676 380.925 515.618 336.256 515.618 290.5H559Z" fill="#6860D6"/>
</g>
</g>
<defs>
<filter id="filter0_d_71_26" x="0.700001" y="0.699757" width="579.6" height="579.6" filterUnits="userSpaceOnUse" color-interpolation-filters="sRGB">
<feFlood flood-opacity="0" result="BackgroundImageFix"/>
<feColorMatrix in="SourceAlpha" type="matrix" values="0 0 0 0 0 0 0 0 0 0 0 0 0 0 0 0 0 0 127 0" result="hardAlpha"/>
<feOffset/>
<feGaussianBlur stdDeviation="10.65"/>
<feComposite in2="hardAlpha" operator="out"/>
<feColorMatrix type="matrix" values="0 0 0 0 1 0 0 0 0 1 0 0 0 0 1 0 0 0 0.25 0"/>
<feBlend mode="normal" in2="BackgroundImageFix" result="effect1_dropShadow_71_26"/>
<feBlend mode="normal" in="SourceGraphic" in2="effect1_dropShadow_71_26" result="shape"/>
</filter>
</defs>
</svg>
