<svg width="26" height="26" viewBox="0 0 26 26" fill="none" xmlns="http://www.w3.org/2000/svg">
<g clip-path="url(#clip0_20_153)">
<path d="M18.3951 5.74086e-05C19.41 -0.034985 20.4214 0.137141 21.3676 0.505931C22.3138 0.874722 23.1749 1.43244 23.8984 2.14506C24.5958 2.86851 25.1411 3.72444 25.5021 4.66224C25.8631 5.60005 26.0324 6.6007 26.0001 7.60506V18.3951C26.0001 20.6484 25.2634 22.5876 23.8551 23.9526C22.3611 25.3319 20.384 26.0674 18.3517 26.0001H7.64841C5.63315 26.0625 3.67476 25.3266 2.19925 23.9526C1.46783 23.22 0.89511 22.3446 0.516756 21.381C0.138403 20.4174 -0.0374745 19.3863 8.08169e-05 18.3517V7.60506C8.08169e-05 3.03339 3.03341 5.74086e-05 7.60508 5.74086e-05H18.3951ZM18.4492 2.41589H7.64841C6.07758 2.41589 4.72341 2.88172 3.82425 3.77006C3.34378 4.28181 2.97143 4.88518 2.72945 5.54411C2.48748 6.20303 2.38084 6.90398 2.41591 7.60506V18.3517C2.41591 19.9767 2.88175 21.2767 3.82425 22.2301C4.87542 23.1598 6.2464 23.6453 7.64841 23.5842H18.3517C19.7538 23.6453 21.1247 23.1598 22.1759 22.2301C22.6806 21.7308 23.076 21.132 23.3371 20.4719C23.5982 19.8117 23.7192 19.1045 23.6926 18.3951V7.60506C23.7275 6.21045 23.223 4.85612 22.2842 3.82422C21.7725 3.34376 21.1691 2.97141 20.5102 2.72943C19.8513 2.48745 19.1503 2.38081 18.4492 2.41589ZM13.0001 6.24006C16.6726 6.24006 19.7167 9.27339 19.7167 12.9567C19.7167 14.7381 19.0091 16.4465 17.7495 17.7061C16.4899 18.9657 14.7815 19.6734 13.0001 19.6734C11.2187 19.6734 9.5103 18.9657 8.25068 17.7061C6.99106 16.4465 6.28341 14.7381 6.28341 12.9567C6.28341 11.1754 6.99106 9.46694 8.25068 8.20732C9.5103 6.9477 11.2187 6.24006 13.0001 6.24006ZM13.0001 8.64506C11.8612 8.65075 10.7706 9.1057 9.96522 9.91103C9.15989 10.7164 8.70494 11.807 8.69925 12.9459C8.70494 14.0848 9.15989 15.1754 9.96522 15.9807C10.7706 16.7861 11.8612 17.241 13.0001 17.2467C14.139 17.241 15.2296 16.7861 16.0349 15.9807C16.8403 15.1754 17.2952 14.0848 17.3009 12.9459C17.2952 11.807 16.8403 10.7164 16.0349 9.91103C15.2296 9.1057 14.139 8.65075 13.0001 8.64506ZM19.9767 4.56089C20.379 4.56089 20.7648 4.72068 21.0492 5.00511C21.3336 5.28954 21.4934 5.67531 21.4934 6.07756C21.4934 6.4798 21.3336 6.86557 21.0492 7.15C20.7648 7.43443 20.379 7.59422 19.9767 7.59422C19.5745 7.59422 19.1887 7.43443 18.9043 7.15C18.6199 6.86557 18.4601 6.4798 18.4601 6.07756C18.4601 5.67531 18.6199 5.28954 18.9043 5.00511C19.1887 4.72068 19.5745 4.56089 19.9767 4.56089Z" fill="#EFEFEF" fill-opacity="0.41"/>
</g>
<defs>
<clipPath id="clip0_20_153">
<rect width="26" height="26" fill="white"/>
</clipPath>
</defs>
</svg>
