<svg width="1920" height="536" viewBox="0 0 1920 536" fill="none" xmlns="http://www.w3.org/2000/svg">
<path d="M-11 345.5H385.5L555 515H1223M1223 515L1432 306H1933.5M1223 515H1953" stroke="url(#paint0_linear_112_31)" stroke-width="38"/>
<path d="M-8 191H341.5L512.5 20H2088" stroke="url(#paint1_linear_112_31)" stroke-width="38"/>
<path d="M-1.5 325.5H393.5L563 495H1216.5L1425.5 286H1921.5" stroke="white" stroke-width="2"/>
<path d="M1919 496H1269L1440 325H1919" stroke="white" stroke-width="2"/>
<path d="M-3.5 209.5H350L521.5 38H1936" stroke="white" stroke-width="2"/>
<path d="M-5.5 171.5H335L505.5 1H1941" stroke="white" stroke-width="2"/>
<path d="M-2.5 366H379.5L548 534.5M548 534.5H1922.5M548 534.5H-55" stroke="white" stroke-width="2"/>
<defs>
<linearGradient id="paint0_linear_112_31" x1="971" y1="306" x2="971" y2="515" gradientUnits="userSpaceOnUse">
<stop stop-color="#19002F"/>
<stop offset="1" stop-color="#9708B0"/>
</linearGradient>
<linearGradient id="paint1_linear_112_31" x1="1040" y1="20" x2="1040" y2="191" gradientUnits="userSpaceOnUse">
<stop stop-color="#19002F"/>
<stop offset="1" stop-color="#9708B0"/>
</linearGradient>
</defs>
</svg>
