<svg width="1920" height="930" viewBox="0 0 1920 930" fill="none" xmlns="http://www.w3.org/2000/svg">
<g id="ligne3" filter="url(#filter0_d_118_36)">
<path id="ITCsvg" d="M-29.5 222.5H451L634 39.5H1704L1938.5 274" stroke="url(#paint0_linear_118_36)" stroke-width="38"/>
<path id="ITCsvg_2" d="M-29.5 527H341H1467.5L1502.5 492H1951.5" stroke="url(#paint1_linear_118_36)" stroke-width="38"/>
<path id="ITCsvg_3" d="M-29.5 527H341L566.5 752.5H1242L1501 493.5H1925" stroke="url(#paint2_linear_118_36)" stroke-width="38"/>
<path id="Vector 28" d="M-1.5 546.5H332L558 772.5M558 772.5H1248.5M558 772.5H443L306.5 909H-26M1248.5 772.5L1508.5 512.5H1928M1248.5 772.5H1629L1722 679.5H1941" stroke="white" stroke-width="2"/>
<path id="Vector 29" d="M574 733.5H575M575 733.5H1235L1423 545.5H387L575 733.5Z" stroke="white" stroke-width="2"/>
<path id="Vector 27" d="M-3.5 508.5H1460L1493.5 475H1920.5" stroke="white" stroke-width="2"/>
<path id="Vector 30" d="M-5.5 242.5H459.5L643 59H1698.5L1929 289.5" stroke="white" stroke-width="2"/>
<path id="Vector 31" d="M1919 228L1712.5 21.5M1712.5 21.5H628.5L446 204H-6M1712.5 21.5H1944" stroke="white" stroke-width="2"/>
</g>
<defs>
<filter id="filter0_d_118_36" x="-49.1" y="0.9" width="2020.64" height="928.7" filterUnits="userSpaceOnUse" color-interpolation-filters="sRGB">
<feFlood flood-opacity="0" result="BackgroundImageFix"/>
<feColorMatrix in="SourceAlpha" type="matrix" values="0 0 0 0 0 0 0 0 0 0 0 0 0 0 0 0 0 0 127 0" result="hardAlpha"/>
<feOffset/>
<feGaussianBlur stdDeviation="9.8"/>
<feComposite in2="hardAlpha" operator="out"/>
<feColorMatrix type="matrix" values="0 0 0 0 0.541667 0 0 0 0 0.740278 0 0 0 0 1 0 0 0 0.7 0"/>
<feBlend mode="normal" in2="BackgroundImageFix" result="effect1_dropShadow_118_36"/>
<feBlend mode="normal" in="SourceGraphic" in2="effect1_dropShadow_118_36" result="shape"/>
</filter>
<linearGradient id="paint0_linear_118_36" x1="954.5" y1="39.5" x2="954.5" y2="274" gradientUnits="userSpaceOnUse">
<stop stop-color="#19002F"/>
<stop offset="1" stop-color="#9708B0"/>
</linearGradient>
<linearGradient id="paint1_linear_118_36" x1="966.5" y1="493.5" x2="966.5" y2="752.5" gradientUnits="userSpaceOnUse">
<stop stop-color="#19002F"/>
<stop offset="1" stop-color="#9708B0"/>
</linearGradient>
<linearGradient id="paint2_linear_118_36" x1="966.5" y1="493.5" x2="966.5" y2="752.5" gradientUnits="userSpaceOnUse">
<stop stop-color="#19002F"/>
<stop offset="1" stop-color="#9708B0"/>
</linearGradient>
</defs>
</svg>
