<svg width="123" height="113" viewBox="0 0 123 113" fill="none" xmlns="http://www.w3.org/2000/svg">
<g id="occitanie" filter="url(#filter0_d_68_53)">
<path d="M9.64783 78.5451C8.1504 79.116 9.59583 62.8703 10.5057 54.6761L14.4053 52.2179L18.0709 51.1077C19.7087 50.209 23.1247 48.3005 23.6863 47.8564C24.2478 47.4124 27.7158 45.1867 29.3796 44.1294L32.0313 40.8781L34.293 37.7062L37.4907 36.1995L40.6103 36.7546L43.106 34.7721L45.4458 31.9174H50.5152H56.1306L53.5569 33.8998L52.075 38.5785L55.8186 40.8781C56.4165 41.2482 57.7528 42.1628 58.3143 42.8606C58.8759 43.5584 60.6281 43.9972 61.434 44.1294L64.2416 40.8781V38.5785L66.4254 31.0451L68.8431 33.8998L71.6508 38.5785V45.7154C72.6127 47.0899 74.6769 50.0927 75.2384 51.1077C75.7999 52.1227 78.644 55.0198 79.9959 56.3414C80.5158 58.9583 81.5557 64.4775 81.5557 65.6194C81.5557 66.7613 78.1241 71.6989 76.4083 74.025C71.7288 77.99 62.1827 86.015 61.434 86.3957C60.4981 86.8715 54.4148 88.616 52.075 88.7746C49.7353 88.9332 49.8133 84.9683 49.1114 83.5409C48.4094 82.1135 45.0558 77.1177 44.1979 77.1177C43.5116 77.1177 40.0124 74.3687 38.3486 72.9942C34.423 72.9413 26.182 72.8673 24.6221 72.9942C22.6724 73.1528 15.8091 76.404 14.4053 77.1177C13.0015 77.8314 11.5196 77.8314 9.64783 78.5451Z" stroke="#CEB9FF" shape-rendering="crispEdges"/>
<path d="M90.7586 95.7529C87.951 97.1803 85.2213 101.462 84.5193 102.89V104L87.1711 102.89C87.821 102.414 89.4484 101.367 90.7586 100.987C92.3965 100.511 94.9702 99.1628 96.9199 98.6077C98.4798 98.1636 100.742 96.5195 101.677 95.7529L100.742 90.7571C98.3498 91.9466 93.0048 94.611 90.7586 95.7529Z" stroke="#CEB9FF" shape-rendering="crispEdges"/>
<path d="M106.591 94.4841V88.7746L109.555 86.3957V83.5409V78.5451L111.894 81.3998L114 86.3957L111.894 88.7746C110.126 90.387 106.591 93.7863 106.591 94.4841Z" stroke="#CEB9FF" shape-rendering="crispEdges"/>
<path d="M53.5569 97.0217C52.7458 96.7679 53.0629 94.6427 53.3229 93.6119C54.9867 94.3255 58.3143 96.0067 58.3143 97.0217C58.3143 98.2905 54.5707 97.3389 53.5569 97.0217Z" stroke="#CEB9FF" shape-rendering="crispEdges"/>
<path d="M52.075 13.6786C50.0785 13.1077 50.2032 10.3216 50.5152 9L53.5569 11.2997H59.7182L66.4254 13.6786L70.4809 15.8197C72.0668 16.1633 75.2384 16.9933 75.2384 17.5643C75.2384 18.278 78.0461 21.3706 78.748 22.798C79.4499 24.2254 81.5557 26.2078 84.5193 28.5075C86.8903 30.3472 83.5315 29.2741 81.5557 28.5075L76.4083 24.9391L71.6508 22.798C71.2609 23.2738 70.1534 24.3681 68.8431 24.9391C67.2053 25.6528 65.4895 24.2254 64.2416 22.798C62.9938 21.3706 63.0718 20.6569 61.434 18.8331C60.1237 17.374 59.7442 16.2162 59.7182 15.8197C58.0024 15.3439 54.0716 14.2496 52.075 13.6786Z" stroke="#CEB9FF" shape-rendering="crispEdges"/>
</g>
<defs>
<filter id="filter0_d_68_53" x="0.4" y="0.0384884" width="122.283" height="112.813" filterUnits="userSpaceOnUse" color-interpolation-filters="sRGB">
<feFlood flood-opacity="0" result="BackgroundImageFix"/>
<feColorMatrix in="SourceAlpha" type="matrix" values="0 0 0 0 0 0 0 0 0 0 0 0 0 0 0 0 0 0 127 0" result="hardAlpha"/>
<feOffset/>
<feGaussianBlur stdDeviation="4.05"/>
<feComposite in2="hardAlpha" operator="out"/>
<feColorMatrix type="matrix" values="0 0 0 0 0.725 0 0 0 0 0.949583 0 0 0 0 1 0 0 0 1 0"/>
<feBlend mode="normal" in2="BackgroundImageFix" result="effect1_dropShadow_68_53"/>
<feBlend mode="normal" in="SourceGraphic" in2="effect1_dropShadow_68_53" result="shape"/>
</filter>
</defs>
</svg>
