<svg width="2675" height="2677" viewBox="0 0 2675 2677" fill="none" xmlns="http://www.w3.org/2000/svg">
<g id="points" filter="url(#filter0_f_35_40)">
<circle id="Ellipse25" cx="324.5" cy="340.5" r="36.5" fill="#7FC0D8" fill-opacity="0.4"/>
<circle id="Ellipse26" cx="1198.5" cy="35.5" r="24.5" fill="#0C2473" fill-opacity="0.44"/>
<circle id="Ellipse40" cx="196.5" cy="1783.5" r="24.5" fill="#0C2473" fill-opacity="0.44"/>
<circle id="Ellipse41" cx="211.5" cy="1665.5" r="20.5" fill="#0C2473" fill-opacity="0.44"/>
<circle id="Ellipse42" cx="239" cy="1716" r="13" fill="#707070" fill-opacity="0.44"/>
<circle id="Ellipse43" cx="91" cy="1716" r="13" fill="#AC72A6" fill-opacity="0.44"/>
<circle id="Ellipse46" cx="117" cy="1908" r="13" fill="#A2A6B0" fill-opacity="0.44"/>
<circle id="Ellipse47" cx="367" cy="1841" r="13" fill="#5B78D5" fill-opacity="0.44"/>
<circle id="Ellipse48" cx="354" cy="1953" r="13" fill="#A485CE" fill-opacity="0.44"/>
<circle id="Ellipse49" cx="453" cy="2161" r="13" fill="#A485CE" fill-opacity="0.44"/>
<circle id="Ellipse50" cx="503" cy="2247" r="19" fill="#C2EFB6" fill-opacity="0.44"/>
<circle id="Ellipse51" cx="616" cy="2224" r="25" fill="#B6E9EF" fill-opacity="0.44"/>
<circle id="Ellipse52" cx="959" cy="2464" r="19" fill="#295896" fill-opacity="0.44"/>
<circle id="Ellipse53" cx="823" cy="2464" r="15" fill="#4EE36E" fill-opacity="0.44"/>
<circle id="Ellipse54" cx="857" cy="2404" r="15" fill="#0D5676" fill-opacity="0.44"/>
<circle id="Ellipse55" cx="877" cy="2593" r="10" fill="#84B9D0" fill-opacity="0.44"/>
<circle id="Ellipse56" cx="1118" cy="2656" r="10" fill="#A7CAD9" fill-opacity="0.44"/>
<circle id="Ellipse44" cx="24" cy="1597" r="13" fill="#707070" fill-opacity="0.44"/>
<circle id="Ellipse45" cx="50" cy="1545" r="12" fill="#707070" fill-opacity="0.44"/>
<circle id="Ellipse27" cx="2360.5" cy="799.5" r="24.5" fill="#0C5473" fill-opacity="0.44"/>
<circle id="Ellipse32" cx="2391.5" cy="1553.5" r="24.5" fill="#0C5473" fill-opacity="0.44"/>
<circle id="Ellipse33" cx="2469.5" cy="1758.5" r="24.5" fill="#0C5473" fill-opacity="0.44"/>
<circle id="Ellipse34" cx="2460.5" cy="1678.5" r="9.5" fill="#7DB3CA" fill-opacity="0.44"/>
<circle id="Ellipse35" cx="2585.5" cy="1736.5" r="7.5" fill="#7DB3CA" fill-opacity="0.44"/>
<circle id="Ellipse36" cx="2577" cy="1824" r="9" fill="#7DB3CA" fill-opacity="0.44"/>
<circle id="Ellipse37" cx="2552.5" cy="1907.5" r="12.5" fill="#7DCA86" fill-opacity="0.44"/>
<circle id="Ellipse38" cx="2623.5" cy="2120.5" r="20.5" fill="#D4E7D6" fill-opacity="0.44"/>
<circle id="Ellipse39" cx="2647.5" cy="2074.5" r="16.5" fill="#3F6C44" fill-opacity="0.44"/>
<circle id="Ellipse28" cx="2359.5" cy="1308.5" r="24.5" fill="#91B4B4" fill-opacity="0.39"/>
<circle id="Ellipse29" cx="2513.5" cy="1420.5" r="10.5" fill="#A691B4" fill-opacity="0.39"/>
<circle id="Ellipse30" cx="2439" cy="1496" r="17" fill="#A691B4" fill-opacity="0.39"/>
<circle id="Ellipse31" cx="2601" cy="1466" r="13" fill="#91A9B4" fill-opacity="0.39"/>
</g>
<defs>
<filter id="filter0_f_35_40" x="0.7" y="0.7" width="2673.6" height="2675.6" filterUnits="userSpaceOnUse" color-interpolation-filters="sRGB">
<feFlood flood-opacity="0" result="BackgroundImageFix"/>
<feBlend mode="normal" in="SourceGraphic" in2="BackgroundImageFix" result="shape"/>
<feGaussianBlur stdDeviation="5.15" result="effect1_foregroundBlur_35_40"/>
</filter>
</defs>
</svg>
