<svg width="27" height="27" viewBox="0 0 27 27" fill="none" xmlns="http://www.w3.org/2000/svg">
<path d="M13.545 3.93752C14.2087 3.93752 22.0275 3.96002 24.0525 4.50002C24.6273 4.65845 25.1503 4.96537 25.569 5.38994C25.9876 5.81451 26.2872 6.34178 26.4375 6.91877C27 9.05627 27 13.5 27 13.5V13.545C27 14.0288 26.9662 18.0788 26.4375 20.07C26.2889 20.6491 25.9901 21.1787 25.5714 21.6054C25.1526 22.032 24.6287 22.3406 24.0525 22.5C22.0725 23.04 14.5463 23.0625 13.59 23.0738H13.3988C12.4425 23.0738 4.91625 23.04 2.9475 22.5113C2.36994 22.3509 1.84509 22.0406 1.42622 21.6118C1.00735 21.1831 0.709357 20.6512 0.5625 20.07C0.09 18.2588 0.01125 14.7825 0 13.77V13.2075C0.01125 12.195 0.09 8.71877 0.5625 6.90752C0.714564 6.3326 1.01487 5.80766 1.4334 5.38518C1.85194 4.9627 2.37403 4.65748 2.9475 4.50002C4.9725 3.94877 12.7913 3.92627 13.455 3.92627L13.545 3.93752ZM10.7325 9.45002V17.5275L17.7975 13.5L10.7325 9.46127V9.45002Z" fill="#EFEFEF" fill-opacity="0.41"/>
</svg>
